<?xml version="1.0" encoding="utf-8"?>
<!-- Generator: Adobe Illustrator 23.1.1, SVG Export Plug-In . SVG Version: 6.00 Build 0)  -->
<svg version="1.1" id="Ebene_1" xmlns="http://www.w3.org/2000/svg" xmlns:xlink="http://www.w3.org/1999/xlink" x="0px" y="0px"
	 viewBox="0 0 58 58" style="enable-background:new 0 0 58 58;" xml:space="preserve">
<g transform="matrix( 0.9666595458984375, 0, 0, 0.9666595458984375, 153,31) ">
	<g transform="matrix( 1, 0, 0, 1, 0,0) ">
		<g>
			<g id="Symbol_79_0_Layer0_0_FILL">
				<path d="M-107.1-23.3c-5.9-5.9-12.9-8.8-21.2-8.8s-15.3,2.9-21.2,8.8c-5.9,5.9-8.8,12.9-8.8,21.2s2.9,15.3,8.8,21.2
					c5.9,5.9,12.9,8.8,21.2,8.8s15.3-2.9,21.2-8.8c5.9-5.9,8.8-12.9,8.8-21.2S-101.2-17.4-107.1-23.3 M-128.3-5.3l4.8-4.8
					c0.4-0.4,0.9-0.4,1.3,0l1.8,1.8c0.5,0.5,0.5,0.9,0.1,1.3l-4.9,4.8l4.9,4.9c0.4,0.5,0.4,0.9,0,1.3l-1.9,1.8
					c-0.4,0.4-0.9,0.4-1.3,0l-4.8-4.8l-4.8,4.8c-0.5,0.5-0.9,0.5-1.3,0l-1.8-1.8c-0.5-0.5-0.5-0.9,0-1.4l4.8-4.8l-4.7-4.7
					c-0.5-0.5-0.5-0.9,0-1.3l1.7-1.9c0.5-0.5,0.9-0.5,1.4,0L-128.3-5.3z"/>
			</g>
		</g>
	</g>
</g>
</svg>
