<?xml version="1.0" encoding="utf-8"?>
<!-- Generator: Adobe Illustrator 23.1.1, SVG Export Plug-In . SVG Version: 6.00 Build 0)  -->
<svg version="1.1" id="Ebene_1" xmlns="http://www.w3.org/2000/svg" xmlns:xlink="http://www.w3.org/1999/xlink" x="0px" y="0px"
	 viewBox="0 0 58 58" style="enable-background:new 0 0 58 58;" xml:space="preserve">
<g transform="matrix( 0.9666595458984375, 0, 0, 0.9666595458984375, 397,336) ">
	<g transform="matrix( 1, 0, 0, 1, 0,0) ">
		<g>
			<g id="Symbol_156_0_Layer0_0_FILL">
				<path d="M-359.5-338.8c-5.9-5.9-12.9-8.8-21.2-8.8c-8.2,0-15.2,2.9-21.1,8.8s-8.9,13-8.9,21.2c0,8.3,3,15.3,8.9,21.2
					s12.9,8.8,21.1,8.8c8.3,0,15.3-2.9,21.2-8.8s8.8-12.9,8.8-21.2C-350.7-325.8-353.6-332.9-359.5-338.8 M-380.7-342.1
					c6.8,0,12.6,2.4,17.4,7.2c4.8,4.7,7.2,10.5,7.2,17.3c0,6.8-2.4,12.6-7.2,17.4c-4.8,4.8-10.6,7.2-17.4,7.2
					c-6.7,0-12.5-2.4-17.3-7.2c-4.8-4.8-7.2-10.6-7.2-17.4c0-6.8,2.4-12.6,7.2-17.3C-393.2-339.7-387.4-342.1-380.7-342.1
					 M-372.4-322.1c1.1-1,1.6-2.2,1.6-3.7c0-1.4-0.5-2.7-1.6-3.7c-1-1-2.2-1.6-3.6-1.6s-2.7,0.5-3.7,1.6c-1,1.1-1.5,2.3-1.5,3.7
					c0,0.6,0.1,1.1,0.2,1.6l-3.2,2.3c-0.9-0.7-1.9-1-3.1-1c-1.5,0-2.7,0.5-3.7,1.5s-1.5,2.3-1.5,3.7c0,1.4,0.5,2.7,1.5,3.7
					s2.2,1.5,3.7,1.5c1.2,0,2.2-0.3,3-1l3.3,2.4c-0.1,0.5-0.2,1-0.2,1.5c0,1.4,0.5,2.7,1.5,3.7c1,1.3,2.3,1.8,3.7,1.8
					c1.5,0,2.7-0.5,3.6-1.6c1.1-1,1.6-2.3,1.6-3.7c0-1.5-0.5-2.7-1.6-3.8c-1-1-2.2-1.5-3.6-1.5c-1.2,0-2.2,0.3-3.1,1l-3.2-2.3
					c0.1-0.5,0.2-1.1,0.2-1.6s-0.1-1.1-0.2-1.6l3.2-2.4c0.9,0.7,1.9,1,3,1C-374.5-320.5-373.3-321-372.4-322.1z"/>
			</g>
		</g>
	</g>
</g>
</svg>
