<?xml version="1.0" encoding="utf-8"?>
<!-- Generator: Adobe Illustrator 23.1.1, SVG Export Plug-In . SVG Version: 6.00 Build 0)  -->
<svg version="1.1" id="Ebene_1" xmlns="http://www.w3.org/2000/svg" xmlns:xlink="http://www.w3.org/1999/xlink" x="0px" y="0px"
	 viewBox="0 0 58 58" style="enable-background:new 0 0 58 58;" xml:space="preserve">
<g transform="matrix( 0.9666595458984375, 0, 0, 0.9666595458984375, 31,336) ">
	<g transform="matrix( 1, 0, 0, 1, 0,0) ">
		<g>
			<g id="Symbol_131_0_Layer0_0_FILL">
				<path d="M13.1-343.4c-4.5-2.7-9.5-4-15.1-4.1c-5.6,0.1-10.6,1.5-15.1,4.1c-4.5,2.6-8.1,6.2-10.7,10.7s-4.1,9.5-4.2,15.1
					c0.1,5.6,1.5,10.6,4.1,15.1s6.2,8.1,10.7,10.7c4.5,2.6,9.5,4,15.1,4.1c5.6-0.1,10.6-1.4,15.1-4.1c4.5-2.7,8.1-6.2,10.7-10.7
					c2.7-4.5,4-9.5,4.1-15.1c-0.1-5.6-1.4-10.6-4.1-15.1C21.2-337.2,17.6-340.8,13.1-343.4 M8.5-321.8c0.5,0.6,0.7,1.2,0.8,2v14.2
					c-0.1,0.8-0.4,1.4-0.8,1.9c-0.6,0.6-1.3,0.9-2,0.9h-17c-0.7,0-1.4-0.3-2-0.9c-0.5-0.5-0.8-1.2-0.8-1.9v-14.2
					c0-0.8,0.3-1.4,0.8-2c0.6-0.5,1.3-0.8,2-0.8h1.4v-2.7c0.1-2.1,0.8-3.7,2.1-5s2.9-2,4.9-2.1c2,0.1,3.6,0.8,5,2.1
					c1.3,1.3,2,2.9,2.1,5v2.7h1.4C7.2-322.5,7.9-322.3,8.5-321.8 M-4-310.6c0.5,0.5,1.2,0.7,2,0.7s1.4-0.3,2-0.8
					c0.5-0.5,0.7-1.1,0.7-1.9c0-0.8-0.3-1.5-0.9-1.9c-0.5-0.7-1.1-1-1.8-1c-0.8,0-1.5,0.3-2,0.9c-0.6,0.5-0.8,1.1-0.8,1.9
					C-4.9-311.9-4.6-311.2-4-310.6 M2.3-322.6v-2.8c-0.1-1.3-0.5-2.3-1.3-3.2c-0.8-0.8-1.9-1.2-3.1-1.2s-2.2,0.4-3.1,1.2
					c-0.9,0.9-1.3,1.9-1.3,3.1v2.9H2.3z"/>
			</g>
		</g>
	</g>
</g>
</svg>
