<?xml version="1.0" encoding="utf-8"?>
<!-- Generator: Adobe Illustrator 23.1.1, SVG Export Plug-In . SVG Version: 6.00 Build 0)  -->
<svg version="1.1" id="Ebene_1" xmlns="http://www.w3.org/2000/svg" xmlns:xlink="http://www.w3.org/1999/xlink" x="0px" y="0px"
	 viewBox="0 0 58 58" style="enable-background:new 0 0 58 58;" xml:space="preserve">
<g transform="matrix( 0.9666595458984375, 0, 0, 0.9666595458984375, 397,458) ">
	<g transform="matrix( 1, 0, 0, 1, 0,0) ">
		<g>
			<g id="Symbol_195_0_Layer0_0_FILL">
				<path d="M-359.5-465c-5.9-5.9-12.9-8.8-21.2-8.8c-8.3,0-15.4,2.9-21.2,8.8c-5.9,5.8-8.8,12.9-8.8,21.2c0,8.3,2.9,15.3,8.8,21.2
					c5.8,5.9,12.9,8.8,21.2,8.8c8.3,0,15.3-2.9,21.2-8.8c5.9-5.9,8.8-12.9,8.8-21.2C-350.7-452.1-353.6-459.2-359.5-465
					 M-378.9-449.4c0.1,0.1,0.2,0.3,0.2,0.4c0.1,0.2,0.2,0.4,0.3,0.6c0,0.1,0.1,0.3,0.1,0.4c0-0.6,0.2-0.9,0.6-0.9h0.1
					c0.5-0.2,0.9-0.2,1.3-0.2c0.1,0,0.1,0,0.2,0.1c0.3,0.1,0.6,0.5,0.9,1c1-0.2,1.7,0,2.2,0.6c0.3,0.2,0.4,0.4,0.5,0.6
					c1,1.5,1.6,3.8,1.6,6.9l0.9,6l-8.5,3.7l-0.9-1.9c-1.9,0-3.9-0.9-5.9-2.8c-1.9-1-3.7-1.7-5.6-2.1c-0.7-0.3-0.8-0.9-0.3-1.8
					c0.5-1.2,2.7-1.2,6.5,0c0.4,0.2,0.4-1,0-3.4l-2.5-10.7c-0.3-1.2,0-1.9,0.9-2.2c0.9-0.3,1.5,0.1,1.9,0.9l2.5,6.6
					c0-0.6,0-1.1,0.1-1.5c0.1-0.1,0.1-0.3,0.2-0.5c0-0.1,0.1-0.1,0.1-0.2c0.1,0,0.2-0.1,0.3-0.1c0.5-0.1,0.9-0.1,1.3,0
					C-379.5-449.8-379.1-449.6-378.9-449.4 M-390.2-458.4c1.1-1.1,2.5-1.6,4-1.6c1.6,0,2.9,0.5,4,1.6c1.1,1.1,1.6,2.5,1.6,4
					c0,1.2-0.3,2.3-0.9,3.2c-0.2,0.1-0.3,0.2-0.5,0.2l-0.7-1.9c0.2-0.5,0.3-1,0.3-1.6c0-1.1-0.4-2-1.1-2.7c-0.8-0.8-1.7-1.1-2.7-1.1
					c-1.1,0-2,0.4-2.7,1.1c-0.8,0.8-1.1,1.7-1.1,2.7c0,1.1,0.4,2,1.1,2.7c0.3,0.3,0.6,0.6,1,0.8l0.4,2c-0.1,0-0.3,0-0.4-0.1
					c-0.9-0.2-1.6-0.7-2.3-1.4c-1.1-1.1-1.6-2.4-1.6-4C-391.9-456-391.3-457.3-390.2-458.4z"/>
			</g>
		</g>
	</g>
</g>
</svg>
