<?xml version="1.0" encoding="utf-8"?>
<!-- Generator: Adobe Illustrator 23.1.1, SVG Export Plug-In . SVG Version: 6.00 Build 0)  -->
<svg version="1.1" id="Ebene_1" xmlns="http://www.w3.org/2000/svg" xmlns:xlink="http://www.w3.org/1999/xlink" x="0px" y="0px"
	 viewBox="0 0 58 58" style="enable-background:new 0 0 58 58;" xml:space="preserve">
<g transform="matrix( -0.9666595458984375, 0, 0, 0.9666595458984375, 31,458) ">
	<g transform="matrix( 1, 0, 0, 1, 0,0) ">
		<g>
			<g>
				<path d="M23.2-465c-5.9-5.9-12.9-8.8-21.1-8.8c-8.3,0-15.3,2.9-21.2,8.8s-8.8,13-8.8,21.2c0,8.3,2.9,15.3,8.8,21.2
					c5.9,5.9,12.9,8.8,21.2,8.8c8.2,0,15.2-2.9,21.1-8.8c5.9-5.9,8.9-12.9,8.9-21.2C32.1-452,29.1-459.1,23.2-465 M2.1-468.3
					c6.7,0,12.5,2.4,17.3,7.2c4.8,4.7,7.2,10.5,7.2,17.3c0,6.8-2.4,12.6-7.2,17.4c-4.8,4.8-10.6,7.2-17.3,7.2
					c-6.8,0-12.6-2.4-17.4-7.2c-4.8-4.8-7.2-10.6-7.2-17.4c0-6.8,2.4-12.6,7.2-17.3C-10.5-465.9-4.7-468.3,2.1-468.3 M8.9-455.5
					l-1.7-1.8c-0.7-0.7-1.3-0.7-2,0l-13.4,13.5l13.4,13.5c0.7,0.7,1.4,0.7,2.1,0L9-432c0.6-0.7,0.6-1.4-0.1-2.1l-9.7-9.7l9.7-9.8
					C9.5-454.3,9.5-454.9,8.9-455.5z"/>
			</g>
		</g>
	</g>
</g>
</svg>
