<?xml version="1.0" encoding="utf-8"?>
<!-- Generator: Adobe Illustrator 23.1.1, SVG Export Plug-In . SVG Version: 6.00 Build 0)  -->
<svg version="1.1" id="Ebene_1" xmlns="http://www.w3.org/2000/svg" xmlns:xlink="http://www.w3.org/1999/xlink" x="0px" y="0px"
	 viewBox="0 0 58 58" style="enable-background:new 0 0 58 58;" xml:space="preserve">
<g transform="matrix( 0.9666595458984375, 0, 0, 0.9666595458984375, 519,92) ">
	<g transform="matrix( 1, 0, 0, 1, 0,0) ">
		<g>
			<g id="Symbol_208_0_Layer0_0_FILL">
				<path d="M-485.7-86.4c-5.9-5.9-12.9-8.8-21.2-8.8s-15.4,2.9-21.2,8.8c-5.9,5.9-8.8,12.9-8.8,21.2s2.9,15.3,8.7,21.2
					c5.9,5.9,13,8.8,21.3,8.8s15.3-2.9,21.2-8.8c5.9-5.9,8.8-12.9,8.8-21.2S-479.8-80.5-485.7-86.4 M-502.8-67.4
					c-0.9-1.1-2.1-2.2-3.6-3.2c-1.5-0.9-2.4-2-2.7-3.3c-0.1-0.4-0.1-0.9,0-1.4c0-0.1,0-0.2,0-0.3c0,0,0-0.1,0-0.2
					c0.4-1.6,1.4-2.4,3.2-2.6c1.3,0,2.3,0.6,3,1.8c0.7-1.2,1.7-1.8,3-1.8c1.8,0.2,2.9,1.1,3.3,2.8c0,0.1,0,0.2,0.1,0.3
					c0.1,0.5,0.1,1-0.1,1.4c-0.3,1.3-1.2,2.4-2.7,3.3c0,0.1-0.1,0.1-0.2,0.2C-500.9-69.4-502-68.4-502.8-67.4 M-498.5-54.4
					c-0.1,1.4-0.9,2.2-2.3,2.4H-515c-1.5-0.2-2.3-1-2.4-2.4v-18.9c0.2-1.5,1-2.3,2.4-2.4h4c0,0.1-0.1,0.1-0.1,0.2
					c0,0.1-0.1,0.2-0.1,0.4c0,0.7,0,1.3,0.2,1.9c0.3,1.6,1.5,3.1,3.5,4.3c2,1.3,3.6,2.7,4.7,4.2c1-1.4,2.5-2.7,4.3-3.9V-54.4
					 M-503.2-56.7v-2.4h-9.5v2.4H-503.2 M-503.2-61.5v-2.4h-9.5v2.4H-503.2z"/>
			</g>
		</g>
	</g>
</g>
</svg>
