<?xml version="1.0" encoding="utf-8"?>
<!-- Generator: Adobe Illustrator 23.1.1, SVG Export Plug-In . SVG Version: 6.00 Build 0)  -->
<svg version="1.1" id="Ebene_1" xmlns="http://www.w3.org/2000/svg" xmlns:xlink="http://www.w3.org/1999/xlink" x="0px" y="0px"
	 viewBox="0 0 58 58" style="enable-background:new 0 0 58 58;" xml:space="preserve">
<g transform="matrix( 0.9666595458984375, 0, 0, 0.9666595458984375, 275,153) ">
	<g transform="matrix( 1, 0, 0, 1, 0,0) ">
		<g>
			<g id="Symbol_97_0_Layer0_0_FILL">
				<path d="M-233.3-149.5c-5.9-5.9-12.9-8.8-21.2-8.8c-8.3,0-15.3,2.9-21.2,8.8c-5.9,5.9-8.8,12.9-8.8,21.2s2.9,15.3,8.8,21.2
					c5.9,5.9,12.9,8.8,21.2,8.8c8.3,0,15.3-2.9,21.2-8.8c5.9-5.9,8.8-12.9,8.8-21.2S-227.4-143.6-233.3-149.5 M-243.5-136.3
					c1.7,0,2.5,0.8,2.5,2.5v11c0,1.7-0.8,2.5-2.5,2.5h-6.3c-0.6,0-1.1-0.4-1.5-1.1l-1.6-4.1c-0.3-0.6-0.8-0.9-1.6-0.9
					s-1.3,0.3-1.6,0.9l-1.6,4.1c-0.4,0.7-0.9,1.1-1.5,1.1h-6.3c-1.7,0-2.5-0.8-2.5-2.5v-11c0-1.7,0.8-2.5,2.5-2.5H-243.5
					 M-258.3-130.1c-0.6-0.6-1.3-0.9-2.1-0.9c-0.8,0-1.5,0.3-2.1,0.9c-0.6,0.6-0.9,1.3-0.9,2.1c0,0.8,0.3,1.5,0.9,2.1
					c0.6,0.6,1.3,0.9,2.1,0.9c0.8,0,1.5-0.3,2.1-0.9s0.9-1.3,0.9-2.1C-257.4-128.8-257.7-129.5-258.3-130.1 M-246.5-130.1
					c-0.6-0.6-1.3-0.9-2.1-0.9s-1.5,0.3-2.1,0.9c-0.6,0.6-0.9,1.3-0.9,2.1c0,0.8,0.3,1.5,0.9,2.1c0.6,0.6,1.3,0.9,2.1,0.9
					s1.5-0.3,2.1-0.9c0.6-0.6,0.9-1.3,0.9-2.1C-245.7-128.8-245.9-129.5-246.5-130.1z"/>
			</g>
		</g>
	</g>
</g>
</svg>
