<?xml version="1.0" encoding="utf-8"?>
<!-- Generator: Adobe Illustrator 23.1.1, SVG Export Plug-In . SVG Version: 6.00 Build 0)  -->
<svg version="1.1" id="Ebene_1" xmlns="http://www.w3.org/2000/svg" xmlns:xlink="http://www.w3.org/1999/xlink" x="0px" y="0px"
	 viewBox="0 0 58 58" style="enable-background:new 0 0 58 58;" xml:space="preserve">
<g transform="matrix( 0.9666595458984375, 0, 0, 0.9666595458984375, 519,397) ">
	<g transform="matrix( 1, 0, 0, 1, 0,0) ">
		<g>
			<g id="Symbol_218_0_Layer0_0_FILL">
				<path d="M-485.7-401.9c-5.9-5.9-12.9-8.8-21.2-8.8s-15.3,2.9-21.2,8.8s-8.8,12.9-8.8,21.2c0,8.3,2.9,15.3,8.8,21.2
					s12.9,8.8,21.2,8.8s15.3-2.9,21.2-8.8c5.9-5.9,8.8-12.9,8.8-21.2C-476.9-389-479.8-396-485.7-401.9 M-501.7-389.5
					c0.4,0.2,0.8,0.4,1.2,0.6l3.6-3.6l1.6,1.6l-3.2,3.4c1.7,1.4,3.3,3.2,4.7,5.5c0.2,0.4,0.3,0.9,0.3,1.4c0,0.4-0.1,0.8-0.3,1.2
					c-2.2,3.6-4.9,6.1-7.9,7.4c-1.6,0.7-3.3,1.2-5.2,1.3c-1.9-0.1-3.6-0.6-5.2-1.2c-0.4-0.2-0.9-0.4-1.3-0.6l-3.5,3.6l-1.6-1.6
					l3.2-3.3c-1.7-1.4-3.3-3.2-4.6-5.4c-0.3-0.4-0.4-0.8-0.4-1.2c0-0.5,0.1-1,0.4-1.4c2.2-3.6,4.8-6.1,7.8-7.4
					c1.6-1,3.3-1.4,5.2-1.5C-505-390.6-503.3-390.2-501.7-389.5 M-505.6-383.7l2.4-2.4c-1-0.8-2.3-1.2-3.7-1.2h-0.2
					c-0.7,0-1.3,0.1-1.9,0.3c-1,0.3-1.9,0.8-2.7,1.6c-0.9,0.8-1.4,1.8-1.7,2.8c-0.2,0.6-0.2,1.2-0.2,1.9c0,1.4,0.4,2.7,1.2,3.8
					l2.3-2.4c-0.2-0.4-0.3-0.9-0.3-1.4c0.9,0,1.7-0.3,2.3-1c0.6-0.7,1-1.5,1-2.4h0.2C-506.4-384-506-383.9-505.6-383.7
					 M-501.6-384.5l-2.4,2.5c0.2,0.4,0.3,0.9,0.3,1.4c0,0.9-0.3,1.7-1,2.4c-0.6,0.6-1.3,0.9-2.2,0.9h-0.2c-0.5,0-0.9-0.1-1.3-0.3
					l-2.4,2.4c1.1,0.8,2.3,1.2,3.7,1.2h0.2c1.8,0,3.3-0.7,4.6-1.9c1.3-1.3,2-2.9,1.9-4.7C-500.4-382.1-500.8-383.3-501.6-384.5z"/>
			</g>
		</g>
	</g>
</g>
</svg>
