<?xml version="1.0" encoding="utf-8"?>
<!-- Generator: Adobe Illustrator 23.1.1, SVG Export Plug-In . SVG Version: 6.00 Build 0)  -->
<svg version="1.1" id="Ebene_1" xmlns="http://www.w3.org/2000/svg" xmlns:xlink="http://www.w3.org/1999/xlink" x="0px" y="0px"
	 viewBox="0 0 58 58" style="enable-background:new 0 0 58 58;" xml:space="preserve">
<g transform="matrix( 0.9666595458984375, 0, 0, 0.9666595458984375, 31,275) ">
	<g transform="matrix( 1, 0, 0, 1, 0,0) ">
		<g>
			<g id="Symbol_112_0_Layer0_0_FILL">
				<path d="M19.1-275.7c-5.9-5.9-12.9-8.8-21.2-8.8s-15.4,2.9-21.2,8.8c-5.9,5.9-8.8,12.9-8.8,21.2c0,8.3,2.9,15.4,8.7,21.2
					c5.9,5.9,13,8.8,21.3,8.8s15.3-2.9,21.2-8.8c5.9-5.8,8.8-12.9,8.8-21.2C27.9-262.8,25-269.8,19.1-275.7 M10.2-265.5
					c0.8,0,1.2,0.4,1.2,1.2v19.6c0,0.8-0.4,1.2-1.2,1.2h-24.5c-0.8,0-1.2-0.4-1.2-1.2v-19.6c0-0.8,0.4-1.2,1.2-1.2H10.2 M8.9-246
					v-17h-22v17H8.9 M1.3-258c0.3-0.3,0.5-0.3,0.7,0l5.6,7.4v3.1h-19.4l5.4-7.2c0.3-0.3,0.5-0.3,0.7,0l1.9,2.4
					c0.3,0.3,0.5,0.3,0.7,0.2L1.3-258 M-9.3-260.9c0.4-0.4,1-0.7,1.6-0.7c0.6,0,1.1,0.3,1.6,0.7c0.4,0.5,0.7,1,0.6,1.6
					c0,0.6-0.2,1.2-0.6,1.6c-0.5,0.5-1,0.7-1.6,0.7c-0.6,0-1.2-0.2-1.6-0.7c-0.5-0.4-0.7-1-0.7-1.6S-9.8-260.4-9.3-260.9z"/>
			</g>
		</g>
	</g>
</g>
</svg>
