<?xml version="1.0" encoding="utf-8"?>
<!-- Generator: Adobe Illustrator 23.1.1, SVG Export Plug-In . SVG Version: 6.00 Build 0)  -->
<svg version="1.1" id="Ebene_1" xmlns="http://www.w3.org/2000/svg" xmlns:xlink="http://www.w3.org/1999/xlink" x="0px" y="0px"
	 viewBox="0 0 58 58" style="enable-background:new 0 0 58 58;" xml:space="preserve">
<g transform="matrix( 0.9666595458984375, 0, 0, 0.9666595458984375, 458,275) ">
	<g transform="matrix( 1, 0, 0, 1, 0,0) ">
		<g>
			<g id="Symbol_130_0_Layer0_0_FILL">
				<path d="M-422.6-275.7c-5.9-5.9-12.9-8.8-21.2-8.8c-8.3,0-15.3,2.9-21.2,8.8s-8.8,12.9-8.8,21.2c0,8.3,2.9,15.3,8.8,21.2
					c5.9,5.9,12.9,8.8,21.2,8.8c8.3,0,15.3-2.9,21.2-8.8c5.9-5.9,8.8-12.9,8.8-21.2C-413.8-262.8-416.7-269.8-422.6-275.7
					 M-443.8-266.6l10.2,8.2v13.9h-7.7v-5.8c0.1-0.6-0.2-0.9-1-0.8h-3c-0.8-0.1-1.1,0.2-1,0.8v5.8h-7.7v-13.9L-443.8-266.6z"/>
			</g>
		</g>
	</g>
</g>
</svg>
