<?xml version="1.0" encoding="utf-8"?>
<!-- Generator: Adobe Illustrator 23.1.1, SVG Export Plug-In . SVG Version: 6.00 Build 0)  -->
<svg version="1.1" id="Ebene_1" xmlns="http://www.w3.org/2000/svg" xmlns:xlink="http://www.w3.org/1999/xlink" x="0px" y="0px"
	 viewBox="0 0 58 58" style="enable-background:new 0 0 58 58;" xml:space="preserve">
<g transform="matrix( 1, 0, 0, 1, 580,275) ">
	<g transform="matrix( 1, 0, 0, 1, 0,0) ">
		<g>
			<g id="Symbol_232_0_Layer0_0_FILL">
				<path d="M-530.5-266.5c-5.7-5.7-12.5-8.5-20.5-8.5s-14.9,2.8-20.5,8.5c-5.7,5.7-8.5,12.5-8.5,20.5s2.8,14.9,8.5,20.5
					c5.6,5.7,12.5,8.5,20.5,8.5s14.8-2.8,20.5-8.5c5.7-5.6,8.5-12.5,8.5-20.5S-524.8-260.8-530.5-266.5 M-540.3-236.5
					c-0.4,0.6-0.9,0.9-1.4,1c-5.4,0.7-10.1-1.2-14.4-5.4c-4.3-4.3-6.1-9-5.5-14.2c0.1-0.7,0.4-1.2,1-1.5c0.8-0.5,1.6-0.9,2.5-1.3
					c0.8-0.2,1.4-0.1,1.6,0.6l2.7,4.1c0.5,0.8,0.5,1.4,0,1.7l-1.6,1.2c-0.7,0.5-0.9,1.2-0.7,2c0.6,1.5,1.5,3.1,2.9,4.5
					c1.5,1.4,2.9,2.3,4.5,2.9c0.9,0.2,1.5,0,2-0.7l1.2-1.6c0.3-0.5,0.9-0.5,1.7,0l4.1,2.7c0.6,0.3,0.8,0.9,0.6,1.6
					C-539.4-238.1-539.8-237.3-540.3-236.5z"/>
			</g>
		</g>
	</g>
</g>
</svg>
