<?xml version="1.0" encoding="utf-8"?>
<!-- Generator: Adobe Illustrator 23.1.1, SVG Export Plug-In . SVG Version: 6.00 Build 0)  -->
<svg version="1.1" id="Ebene_1" xmlns="http://www.w3.org/2000/svg" xmlns:xlink="http://www.w3.org/1999/xlink" x="0px" y="0px"
	 viewBox="0 0 58 58" style="enable-background:new 0 0 58 58;" xml:space="preserve">
<g transform="matrix( 0.9666595458984375, 0, 0, 0.9666595458984375, 336,397) ">
	<g transform="matrix( 1, 0, 0, 1, 0,0) ">
		<g>
			<g id="Symbol_170_0_Layer0_0_FILL">
				<path d="M-296.4-401.9c-5.9-5.9-12.9-8.8-21.2-8.8c-8.3,0-15.3,2.9-21.2,8.8s-8.8,12.9-8.8,21.2c0,8.3,2.9,15.3,8.8,21.2
					s12.9,8.8,21.2,8.8c8.3,0,15.3-2.9,21.2-8.8s8.8-12.9,8.8-21.2C-287.6-389-290.5-396-296.4-401.9 M-310-391.4l-6.1,6.1
					c-0.3-0.5-0.6-1-1-1.4c-0.5-0.5-0.9-0.8-1.4-1.1l6-6L-310-391.4 M-317-382.5c0,0.6-0.1,1.1-0.3,1.6c-0.2,0.5-0.5,1-1,1.5
					c-0.4,0.4-0.9,0.8-1.5,1c-0.5,0.2-1,0.2-1.5,0.2c-1.2,0-2.2-0.4-3-1.2c-0.9-0.9-1.3-1.9-1.3-3.1s0.4-2.2,1.2-3s1.9-1.3,3.1-1.3
					c0.6,0,1.1,0.1,1.6,0.3s1,0.5,1.5,1c0.4,0.4,0.8,0.9,1,1.5C-317.1-383.6-317-383-317-382.5 M-320.9-365.7l-2.5-2.5l6.9-6.9l-2-2
					c0.5-0.3,1-0.6,1.4-1c0.4-0.4,0.8-0.9,1-1.4l4.5,4.5L-320.9-365.7z"/>
			</g>
		</g>
	</g>
</g>
</svg>
