<?xml version="1.0" encoding="utf-8"?>
<!-- Generator: Adobe Illustrator 23.1.1, SVG Export Plug-In . SVG Version: 6.00 Build 0)  -->
<svg version="1.1" id="Ebene_1" xmlns="http://www.w3.org/2000/svg" xmlns:xlink="http://www.w3.org/1999/xlink" x="0px" y="0px"
	 viewBox="0 0 58 58" style="enable-background:new 0 0 58 58;" xml:space="preserve">
<g transform="matrix( -0.9666595458984375, 0, 0, 0.9666595458984375, 336,458) ">
	<g transform="matrix( 1, 0, 0, 1, 0,0) ">
		<g>
			<g>
				<path d="M338.8-465c-5.8-5.9-12.9-8.8-21.2-8.8c-8.3,0-15.3,2.9-21.2,8.8s-8.8,12.9-8.8,21.2c0,8.3,2.9,15.3,8.8,21.2
					c5.9,5.9,12.9,8.8,21.2,8.8c8.3,0,15.4-2.9,21.2-8.8c5.9-5.9,8.8-12.9,8.8-21.2C347.6-452.1,344.7-459.1,338.8-465 M320.6-454.1
					l1.3,1.4c0.5,0.5,0.5,1,0,1.4l-7.4,7.5l7.4,7.4c0.5,0.6,0.5,1.1,0,1.6l-1.3,1.3c-0.5,0.5-1,0.5-1.6,0l-10.1-10.3l10.1-10.3
					C319.6-454.5,320.1-454.5,320.6-454.1z"/>
			</g>
		</g>
	</g>
</g>
</svg>
