<?xml version="1.0" encoding="utf-8"?>
<!-- Generator: Adobe Illustrator 23.1.1, SVG Export Plug-In . SVG Version: 6.00 Build 0)  -->
<svg version="1.1" id="Ebene_1" xmlns="http://www.w3.org/2000/svg" xmlns:xlink="http://www.w3.org/1999/xlink" x="0px" y="0px"
	 viewBox="0 0 58 58" style="enable-background:new 0 0 58 58;" xml:space="preserve">
<g transform="matrix( 0.9666595458984375, 0, 0, 0.9666595458984375, 92,92) ">
	<g transform="matrix( 1, 0, 0, 1, 0,0) ">
		<g>
			<g id="Symbol_86_0_Layer0_0_FILL">
				<path d="M-44-86.4c-5.9-5.9-12.9-8.8-21.2-8.8s-15.3,2.9-21.2,8.8c-5.9,5.9-8.8,12.9-8.8,21.2s2.9,15.3,8.8,21.2
					c5.9,5.9,12.9,8.8,21.2,8.8S-49.9-38.1-44-44s8.8-12.9,8.8-21.2S-38.1-80.5-44-86.4 M-55.8-78l3.4,3.4l-2.2,2.2l-3.4-3.4
					L-55.8-78 M-55.4-71.6l-6,6l-4,0.6l0.5-4l6-6L-55.4-71.6 M-59.7-59.9v-3.8l3.8-3.8V-56h-18.5v-18.6h11.5l-3.8,3.8h-3.8v10.9
					H-59.7z"/>
			</g>
		</g>
	</g>
</g>
</svg>
