<?xml version="1.0" encoding="utf-8"?>
<!-- Generator: Adobe Illustrator 23.1.1, SVG Export Plug-In . SVG Version: 6.00 Build 0)  -->
<svg version="1.1" id="Ebene_1" xmlns="http://www.w3.org/2000/svg" xmlns:xlink="http://www.w3.org/1999/xlink" x="0px" y="0px"
	 viewBox="0 0 58 58" style="enable-background:new 0 0 58 58;" xml:space="preserve">
<g transform="matrix( 0.9666595458984375, 0, 0, 0.9666595458984375, 458,31) ">
	<g transform="matrix( 1, 0, 0, 1, 0,0) ">
		<g>
			<g id="Symbol_84_0_Layer0_0_FILL">
				<path d="M-422.6-23.3c-5.9-5.9-12.9-8.8-21.2-8.8c-8.3,0-15.3,2.9-21.2,8.8s-8.8,12.9-8.8,21.2s2.9,15.3,8.8,21.2
					s12.9,8.8,21.2,8.8c8.3,0,15.3-2.9,21.2-8.8c5.9-5.9,8.8-12.9,8.8-21.2S-416.7-17.4-422.6-23.3 M-432.1-9.3v7
					c0,0.3-0.1,0.6-0.2,0.8c-0.3,0.3-0.6,0.4-0.9,0.4l-14.5,1.6l0.2,0.8c0,0.2,0,0.4-0.1,0.5l-0.2,0.7h13.1c0.3,0,0.5,0.1,0.7,0.3
					c0.2,0.2,0.3,0.4,0.3,0.6s-0.1,0.4-0.3,0.6c-0.2,0.2-0.4,0.3-0.7,0.3h-14.6c-0.2,0-0.4-0.1-0.6-0.2c-0.1-0.1-0.2-0.2-0.3-0.4
					c0-0.2,0-0.4,0.1-0.6l0.7-1.6l-2.3-11.8h-3c-0.3,0-0.5-0.1-0.6-0.2c-0.2-0.2-0.3-0.4-0.2-0.7c0-0.3,0.1-0.5,0.2-0.6
					c0.1-0.2,0.3-0.3,0.6-0.3h3.7c0.2,0,0.4,0.1,0.6,0.2c0.1,0.1,0.2,0.3,0.2,0.5l0.2,1h16.8c0.3,0,0.6,0.1,0.9,0.3
					C-432.1-9.8-432.1-9.5-432.1-9.3 M-436.9,4.9c0.3-0.3,0.7-0.5,1.2-0.5s0.9,0.2,1.2,0.5c0.4,0.3,0.5,0.7,0.5,1.2
					s-0.2,0.9-0.5,1.3c-0.3,0.3-0.7,0.5-1.2,0.5s-0.8-0.2-1.2-0.4c-0.3-0.5-0.5-0.9-0.5-1.4S-437.2,5.2-436.9,4.9 M-449.6,7.4
					c-0.3-0.4-0.5-0.9-0.5-1.3c0-0.5,0.2-0.9,0.5-1.2c0.4-0.3,0.8-0.5,1.3-0.5s0.9,0.2,1.2,0.5s0.5,0.7,0.5,1.2s-0.2,0.9-0.4,1.3
					c-0.5,0.3-0.9,0.5-1.3,0.5C-448.8,7.9-449.2,7.7-449.6,7.4z"/>
			</g>
		</g>
	</g>
</g>
</svg>
