<?xml version="1.0" encoding="utf-8"?>
<!-- Generator: Adobe Illustrator 23.1.1, SVG Export Plug-In . SVG Version: 6.00 Build 0)  -->
<svg version="1.1" id="Ebene_1" xmlns="http://www.w3.org/2000/svg" xmlns:xlink="http://www.w3.org/1999/xlink" x="0px" y="0px"
	 viewBox="0 0 58 58" style="enable-background:new 0 0 58 58;" xml:space="preserve">
<g transform="matrix( 0.9666595458984375, 0, 0, 0.9666595458984375, 519,153) ">
	<g transform="matrix( 1, 0, 0, 1, 0,0) ">
		<g>
			<g id="Duplicate_Items_Folder_Symbol_199_0_Layer0_0_FILL">
				<path d="M-485.8-149.5c-5.9-5.9-12.9-8.8-21.1-8.8c-8.3,0-15.3,2.9-21.2,8.8c-5.9,5.9-8.8,13-8.8,21.2c0,8.3,2.9,15.3,8.8,21.2
					c5.9,5.9,12.9,8.8,21.2,8.8c8.2,0,15.2-2.9,21.1-8.8c5.9-5.9,8.9-12.9,8.9-21.2C-476.9-136.5-479.9-143.6-485.8-149.5
					 M-506.9-152.8c6.7,0,12.5,2.4,17.3,7.2c4.8,4.7,7.2,10.5,7.2,17.3c0,6.8-2.4,12.6-7.2,17.4c-4.8,4.8-10.6,7.2-17.3,7.2
					c-6.8,0-12.6-2.4-17.4-7.2s-7.2-10.6-7.2-17.4c0-6.8,2.4-12.6,7.2-17.3C-519.5-150.4-513.7-152.8-506.9-152.8 M-503.6-125.4
					v-16.3h-6.6v16.3H-503.6 M-509.7-121.7c-0.8,0.8-1.2,1.8-1.2,2.9c0,1.1,0.4,2.1,1.1,2.8c0.8,0.8,1.8,1.2,2.8,1.2
					c1.1,0,2.1-0.4,2.8-1.2c0.9-0.7,1.3-1.7,1.3-2.8c0-1.1-0.4-2.1-1.2-2.9c-0.8-0.8-1.7-1.1-2.8-1.1S-508.9-122.4-509.7-121.7z"/>
			</g>
		</g>
	</g>
</g>
</svg>
