<?xml version="1.0" encoding="utf-8"?>
<!-- Generator: Adobe Illustrator 23.1.1, SVG Export Plug-In . SVG Version: 6.00 Build 0)  -->
<svg version="1.1" id="Ebene_1" xmlns="http://www.w3.org/2000/svg" xmlns:xlink="http://www.w3.org/1999/xlink" x="0px" y="0px"
	 viewBox="0 0 58 58" style="enable-background:new 0 0 58 58;" xml:space="preserve">
<g transform="matrix( 0.9666595458984375, 0, 0, 0.9666595458984375, 214,31) ">
	<g transform="matrix( 1, 0, 0, 1, 0,0) ">
		<g>
			<g id="Symbol_80_0_Layer0_0_FILL">
				<path d="M-170.2-23.3c-5.9-5.9-12.9-8.8-21.2-8.8s-15.3,2.9-21.2,8.8c-5.9,5.9-8.8,12.9-8.8,21.2s2.9,15.3,8.8,21.2
					c5.9,5.9,12.9,8.8,21.2,8.8s15.3-2.9,21.2-8.8c5.9-5.9,8.8-12.9,8.8-21.2S-164.3-17.4-170.2-23.3 M-187.2-11.9h4.3v2.4H-200
					v-2.4h4.3l1.2-1.2h6.1L-187.2-11.9 M-184.2,6.4c-0.2,1.5-1,2.3-2.4,2.4h-9.7c-1.5-0.2-2.3-1-2.4-2.4V-8.2h14.5V6.4 M-187.1-2.2
					l-1.8-1.9l-2.5,2.7l-2.6-2.7l-1.7,1.8l2.6,2.6l-2.6,2.6l1.7,1.8l2.6-2.7l2.5,2.6l1.8-1.7l-2.7-2.5L-187.1-2.2z"/>
			</g>
		</g>
	</g>
</g>
</svg>
