<?xml version="1.0" encoding="utf-8"?>
<!-- Generator: Adobe Illustrator 23.1.1, SVG Export Plug-In . SVG Version: 6.00 Build 0)  -->
<svg version="1.1" id="Ebene_1" xmlns="http://www.w3.org/2000/svg" xmlns:xlink="http://www.w3.org/1999/xlink" x="0px" y="0px"
	 viewBox="0 0 58 58" style="enable-background:new 0 0 58 58;" xml:space="preserve">
<g transform="matrix( 0.9666595458984375, 0, 0, 0.9666595458984375, 397,214) ">
	<g transform="matrix( 1, 0, 0, 1, 0,0) ">
		<g>
			<g id="Symbol_108_0_Layer0_0_FILL">
				<path d="M-359.5-212.6c-5.9-5.9-12.9-8.8-21.2-8.8c-8.3,0-15.4,2.9-21.2,8.8c-5.9,5.9-8.8,12.9-8.8,21.2s2.9,15.4,8.7,21.2
					c5.9,5.9,13,8.8,21.3,8.8c8.3,0,15.3-2.9,21.2-8.8c5.9-5.8,8.8-12.9,8.8-21.2S-353.6-206.7-359.5-212.6 M-372.5-193.6
					c1.6,0.1,2.8,0.7,3.8,1.7s1.5,2.3,1.5,3.8c0,1.6-0.6,2.9-1.6,3.9s-2.4,1.8-4,1.8h-14.6c-1.9,0-3.5-0.7-4.8-1.9
					c-1.3-1.3-1.9-2.9-1.9-4.8c0-1.8,0.6-3.3,1.7-4.5s2.6-2,4.3-2.2c0.7-1.4,1.7-2.5,3-3.3c1.3-0.9,2.7-1.3,4.4-1.3
					c2.1,0,3.9,0.7,5.4,1.9C-373.8-197.3-372.9-195.6-372.5-193.6 M-378.5-185.8v-4.5h3.3l-5.5-5.6l-5.6,5.6h3.3v4.5H-378.5z"/>
			</g>
		</g>
	</g>
</g>
</svg>
