<?xml version="1.0" encoding="utf-8"?>
<!-- Generator: Adobe Illustrator 23.1.1, SVG Export Plug-In . SVG Version: 6.00 Build 0)  -->
<svg version="1.1" id="Ebene_1" xmlns="http://www.w3.org/2000/svg" xmlns:xlink="http://www.w3.org/1999/xlink" x="0px" y="0px"
	 viewBox="0 0 58 58" style="enable-background:new 0 0 58 58;" xml:space="preserve">
<g transform="matrix( 0.9666595458984375, 0, 0, 0.9666595458984375, 31,214) ">
	<g transform="matrix( 1, 0, 0, 1, 0,0) ">
		<g>
			<g id="Symbol_210_0_Layer0_0_FILL">
				<path d="M19.1-212.6c-5.9-5.9-12.9-8.8-21.2-8.8s-15.4,2.9-21.2,8.8c-5.9,5.9-8.8,12.9-8.8,21.2s2.9,15.3,8.8,21.2
					c5.8,5.9,12.9,8.8,21.2,8.8s15.3-2.9,21.2-8.8c5.9-5.9,8.8-12.9,8.8-21.2S25-206.7,19.1-212.6 M1.8-206.5L1.8-206.5
					c1.1,0.4,2.2,1,3.1,1.8c1,0.8,1.8,1.8,2.4,2.8l0,0c0.6,1.1,0.9,2.2,0.9,3.4c0,1.4-0.3,2.5-0.8,3.3l0,0c-0.4,0.7-0.9,1.3-1.6,1.8
					l-0.1,0.1c-0.1,0.1-0.2,0.2-0.4,0.3c0,0-0.1,0.1-0.2,0.1c-0.6,0.5-1.2,0.9-1.8,1.2c0,0,0,0-0.1,0c0,0.1-0.1,0.1-0.3,0.2
					c0,0,0,0-0.1,0c-0.2,0.3-0.6,0.6-0.9,0.9l0,0c-0.4,0.5-0.7,0.9-0.9,1.4l0,0c-0.2,0.3-0.2,0.5-0.3,0.7c0,0.1,0,0.1,0,0.1v0.7h-6
					v-1.5c0-0.6,0.2-1.1,0.5-1.6l0,0c0.1-0.2,0.2-0.4,0.3-0.6l0,0c0.4-0.8,1-1.4,1.6-1.9c0,0,0,0,0.1,0c0.7-0.6,1.3-1,1.9-1.3
					c0,0,0.1,0,0,0c1-0.4,1.8-0.9,2.2-1.4l0,0c0.6-0.9,0.9-1.6,0.9-2.6c0-0.1,0-0.1,0-0.2l0,0c0-0.6-0.3-1.1-0.7-1.5v-0.1
					c-0.5-0.4-1-0.7-1.6-1.1l0,0c-0.6-0.2-1.3-0.3-2-0.3s-1.2,0.1-1.7,0.2c0,0,0,0,0,0.1c-0.6,0.1-1,0.3-1.3,0.4
					c-0.1,0.1-0.2,0.1-0.2,0.1c-0.2,0.2-0.5,0.5-0.8,0.8c-0.1,0.1-0.3,0.3-0.5,0.6v0.1c-0.3,0.2-0.5,0.5-0.8,0.8l-0.1,0.1l-0.4,0.6
					l-4.2-3.2l0.3-0.4l0,0c2.3-3.8,5.7-5.6,10.1-5.6C-0.5-207.2,0.6-207,1.8-206.5 M5.5-193l0.2-0.2L5.5-193L5.5-193 M-0.2-181.5
					c0.6,0.6,0.9,1.3,0.8,2.1c0,0.9-0.3,1.6-0.8,2.1v0.1c-0.6,0.6-1.3,0.9-2.1,0.9s-1.6-0.3-2.2-0.9l0,0c-0.6-0.6-0.9-1.3-0.9-2.2
					c0-0.9,0.3-1.6,0.8-2.1v0.1c0.6-0.6,1.3-0.9,2.2-1h0.2C-1.4-182.3-0.7-182.1-0.2-181.5z"/>
			</g>
		</g>
	</g>
</g>
</svg>
