<?xml version="1.0" encoding="utf-8"?>
<!-- Generator: Adobe Illustrator 23.1.1, SVG Export Plug-In . SVG Version: 6.00 Build 0)  -->
<svg version="1.1" id="Ebene_1" xmlns="http://www.w3.org/2000/svg" xmlns:xlink="http://www.w3.org/1999/xlink" x="0px" y="0px"
	 viewBox="0 0 58 58" style="enable-background:new 0 0 58 58;" xml:space="preserve">
<g transform="matrix( 0.9666595458984375, 0, 0, 0.9666595458984375, 31,31) ">
	<g transform="matrix( 1, 0, 0, 1, 0,0) ">
		<g>
			<g id="Symbol_77_0_Layer0_0_FILL">
				<path d="M19.1-23.3c-5.9-5.9-12.9-8.8-21.2-8.8s-15.3,2.9-21.2,8.8s-8.8,12.9-8.8,21.2s2.9,15.3,8.8,21.2s12.9,8.8,21.2,8.8
					s15.3-2.9,21.2-8.8s8.8-12.9,8.8-21.2S25-17.4,19.1-23.3 M0.1-4.3H7c0.6,0,0.9,0.3,0.9,0.9v2.6c0,0.6-0.4,0.9-0.9,0.9H0.1v6.8
					c0,0.7-0.3,1-0.9,1h-2.5c-0.7,0-1-0.3-1-1V0.1h-6.7c-0.7,0-1-0.3-1-0.9v-2.5c0-0.7,0.3-1,1-1h6.7v-6.8c0-0.6,0.3-0.9,0.9-0.9
					h2.6c0.6,0,0.9,0.3,0.9,0.9C0.1-11.2,0.1-4.3,0.1-4.3z"/>
			</g>
		</g>
	</g>
</g>
</svg>
