<?xml version="1.0" encoding="utf-8"?>
<!-- Generator: Adobe Illustrator 23.1.1, SVG Export Plug-In . SVG Version: 6.00 Build 0)  -->
<svg version="1.1" id="Ebene_1" xmlns="http://www.w3.org/2000/svg" xmlns:xlink="http://www.w3.org/1999/xlink" x="0px" y="0px"
	 viewBox="0 0 58 58" style="enable-background:new 0 0 58 58;" xml:space="preserve">
<g transform="matrix( 0.9666595458984375, 0, 0, 0.9666595458984375, 519,458) ">
	<g transform="matrix( 1, 0, 0, 1, 0,0) ">
		<g>
			<g id="Symbol_220_0_Layer0_0_FILL">
				<path d="M-485.7-465c-5.9-5.9-12.9-8.8-21.2-8.8s-15.3,2.9-21.2,8.8s-8.8,12.9-8.8,21.2c0,8.3,2.9,15.3,8.8,21.2
					c5.9,5.9,12.9,8.8,21.2,8.8s15.3-2.9,21.2-8.8c5.9-5.9,8.8-12.9,8.8-21.2C-476.9-452.1-479.8-459.1-485.7-465 M-496.1-457.7
					c0.9-0.2,1.5,0.1,1.9,0.8l-2.9,8l-3-1.3L-496.1-457.7 M-506.6-446.7c0.6,0.5,1.3,0.7,2.1,0.5c0.6,1.2,1.7,1.8,3.1,1.6
					c0.7,1.3,1.7,1.7,3.2,1.4c0.7,1,1.6,1.5,2.9,1.5c-0.2,0.6-0.4,1.2-0.6,1.8c-1.3,0-2.3-0.5-3-1.5c-1.4,0.3-2.4-0.2-3.1-1.5
					c-1.5,0.2-2.5-0.3-3.2-1.5c-1,0.2-1.8-0.1-2.3-0.8C-507.2-445.7-506.9-446.2-506.6-446.7 M-506-448c0-0.1,0-0.1,0.1-0.2
					c0.8-1.5,2.1-1.9,3.8-1.4l5.5,2.3c1.7,1,2.3,2.3,1.9,4.1c0,0.1-0.1,0.2-0.1,0.2c-1.1-0.1-2-0.6-2.7-1.5
					c-1.4,0.4-2.4-0.1-3.1-1.4c-1.5,0.2-2.6-0.3-3.2-1.6C-504.7-447.3-505.5-447.5-506-448 M-505.8-443.2c0.6,1.2,1.7,1.7,3.1,1.5
					c0.7,1.4,1.8,1.9,3.3,1.7c0.7,1,1.7,1.5,3.1,1.4c-1.5,3.3-3.5,6.2-6,8.7c-1.2-0.2-2.4-0.4-3.5-0.7c1.9-1.7,3.4-3.7,4.4-6
					c-2.3,2.7-4.9,4.4-7.6,5c-1.3-0.5-2.5-1.1-3.6-1.7c-0.1,0-0.2,0-0.2-0.1c1.5-1,2.6-2.3,3.3-3.7c-1.6,1.1-3.4,1.9-5.4,2.5
					c-1.5-1.1-2.9-2.4-4.1-3.8c4.4-0.4,8-2.3,10.7-5.7C-507.7-443.3-506.9-443-505.8-443.2 M-519-444.9c-0.4-0.4-0.6-0.9-0.6-1.5
					c0-0.6,0.2-1.1,0.6-1.5c0.4-0.4,0.9-0.6,1.5-0.6c0.6,0,1.2,0.1,1.6,0.5c0.4,0.4,0.7,0.9,0.7,1.5s-0.3,1.2-0.7,1.6
					c-0.4,0.4-0.9,0.6-1.5,0.6C-518-444.3-518.6-444.5-519-444.9 M-518.5-453.9c0-0.3,0.1-0.6,0.4-0.8c0.2-0.2,0.4-0.3,0.7-0.3
					c0.3,0,0.6,0.1,0.8,0.3c0.2,0.3,0.3,0.5,0.3,0.8c0,0.3-0.1,0.5-0.3,0.7c-0.2,0.3-0.5,0.4-0.8,0.4s-0.6-0.1-0.7-0.4
					C-518.4-453.4-518.5-453.6-518.5-453.9 M-509.1-453.1c0.6,0.7,0.9,1.4,0.9,2.3c0,0.9-0.3,1.7-0.9,2.3c-0.6,0.6-1.4,0.9-2.3,0.9
					s-1.7-0.2-2.3-0.9c-0.6-0.6-1-1.4-0.9-2.3c0-0.9,0.3-1.7,0.9-2.3c0.6-0.6,1.4-0.9,2.3-0.9S-509.8-453.7-509.1-453.1z"/>
			</g>
		</g>
	</g>
</g>
</svg>
