<?xml version="1.0" encoding="utf-8"?>
<!-- Generator: Adobe Illustrator 23.1.1, SVG Export Plug-In . SVG Version: 6.00 Build 0)  -->
<svg version="1.1" id="Ebene_1" xmlns="http://www.w3.org/2000/svg" xmlns:xlink="http://www.w3.org/1999/xlink" x="0px" y="0px"
	 viewBox="0 0 58 58" style="enable-background:new 0 0 58 58;" xml:space="preserve">
<g transform="matrix( 0.9666595458984375, 0, 0, 0.9666595458984375, 31,153) ">
	<g transform="matrix( 1, 0, 0, 1, 0,0) ">
		<g>
			<g id="Symbol_93_0_Layer0_0_FILL">
				<path d="M19.1-149.5c-5.9-5.9-12.9-8.8-21.2-8.8s-15.3,2.9-21.2,8.8c-5.9,5.9-8.8,12.9-8.8,21.2s2.9,15.3,8.8,21.2
					c5.9,5.9,12.9,8.8,21.2,8.8s15.3-2.9,21.2-8.8c5.9-5.9,8.8-12.9,8.8-21.2S25-143.6,19.1-149.5 M5.2-131.4
					c-2.6,0-4.8,0.9-6.6,2.7c-0.7,0.8-1.3,1.6-1.7,2.4c-0.1,0.2-0.1,0.3-0.2,0.5s-0.2,0.4-0.2,0.5s0,0.1-0.1,0.2
					c-0.1,0.1-0.1,0.2-0.1,0.3l3.8,3.8h-11.2v-11.2l3.5,3.5c0.1-0.1,0.1-0.1,0.2-0.2c0-0.1,0.1-0.1,0.1-0.1l0.2-0.1l0.1-0.1
					c0-0.1,0.1-0.2,0.2-0.3l0.1-0.1c0.2-0.2,0.4-0.4,0.6-0.7c2.3-2.3,5-3.4,8.1-3.4s5.9,1.2,8.2,3.4c0.3,0.3,0.5,0.5,0.7,0.7
					C9.3-130.8,7.4-131.4,5.2-131.4z"/>
			</g>
		</g>
	</g>
</g>
</svg>
