<?xml version="1.0" encoding="utf-8"?>
<!-- Generator: Adobe Illustrator 23.1.1, SVG Export Plug-In . SVG Version: 6.00 Build 0)  -->
<svg version="1.1" id="Ebene_1" xmlns="http://www.w3.org/2000/svg" xmlns:xlink="http://www.w3.org/1999/xlink" x="0px" y="0px"
	 viewBox="0 0 58 58" style="enable-background:new 0 0 58 58;" xml:space="preserve">
<g transform="matrix( 0.9666595458984375, 0, 0, 0.9666595458984375, 580,31) ">
	<g transform="matrix( 1, 0, 0, 1, 0,0) ">
		<g>
			<g id="Symbol_226_0_Layer0_0_FILL">
				<path d="M-548.8-23.3c-5.9-5.9-12.9-8.8-21.2-8.8c-8.3,0-15.3,2.9-21.2,8.8S-600-10.4-600-2.1s2.9,15.3,8.8,21.2
					c5.9,5.9,12.9,8.8,21.2,8.8c8.3,0,15.3-2.9,21.2-8.8c5.9-5.9,8.8-12.9,8.8-21.2S-542.9-17.4-548.8-23.3 M-570-16.7
					c1.2,0,2.2,0.4,3,1.3c0.8,0.8,1.2,1.8,1.2,3v10.6c0,1.2-0.4,2.2-1.2,3c-0.8,0.8-1.8,1.3-3,1.3c-1.2,0-2.2-0.4-3-1.2
					c-0.8-0.8-1.2-1.8-1.2-3v-10.5c0-1.2,0.4-2.2,1.2-3C-572.2-16.3-571.2-16.7-570-16.7 M-564.3-5.8h2.6v6.3c0,1.7-0.8,3.2-2.4,4.4
					c-1.3,1-2.7,1.5-4.4,1.7v2.8h3.6v3h-10.3v-3h3.7V6.6c-1.7-0.2-3.1-0.7-4.4-1.7c-1.6-1.2-2.4-2.7-2.4-4.4v-6.3h2.6V-1
					c0,1.4,0.5,2.6,1.6,3.6c1.1,1,2.5,1.4,4,1.4s2.9-0.5,4-1.4c1.1-1,1.7-2.2,1.7-3.6L-564.3-5.8L-564.3-5.8z"/>
			</g>
		</g>
	</g>
</g>
</svg>
