<?xml version="1.0" encoding="utf-8"?>
<!-- Generator: Adobe Illustrator 23.1.1, SVG Export Plug-In . SVG Version: 6.00 Build 0)  -->
<svg version="1.1" id="Ebene_1" xmlns="http://www.w3.org/2000/svg" xmlns:xlink="http://www.w3.org/1999/xlink" x="0px" y="0px"
	 viewBox="0 0 58 58" style="enable-background:new 0 0 58 58;" xml:space="preserve">
<g transform="matrix( 0.9666595458984375, 0, 0, 0.9666595458984375, 153,214) ">
	<g transform="matrix( 1, 0, 0, 1, 0,0) ">
		<g>
			<g id="Symbol_103_0_Layer0_0_FILL">
				<path d="M-112.6-198.5c0-6.3-2.2-11.7-6.7-16.1c-4.6-4.5-9.9-6.7-16.2-6.7c-1.3,0-2.6,0.1-3.9,0.4c-4.7,0.7-8.7,2.8-12.3,6.3
					c-4.4,4.5-6.6,9.8-6.6,16.1s2.2,11.7,6.6,16.1c3.7,3.6,7.8,5.7,12.6,6.4c1.1,0.2,2.2,0.2,3.5,0.2c4.4,0,8.3-1.1,11.9-3.2
					c0.1,0.4,0.2,0.7,0.5,0.9l15.8,15.9c0.5,0.5,1.1,0.8,1.7,0.8c0.7,0,1.2-0.2,1.8-0.8l4.8-4.8c0.5-0.5,0.8-1.1,0.8-1.8
					s-0.2-1.2-0.8-1.7l-15.8-15.7c-0.2-0.3-0.5-0.5-0.8-0.7C-113.6-190.4-112.6-194.3-112.6-198.5 M-126.2-207.9
					c2.6,2.5,3.9,5.7,3.9,9.3s-1.3,6.7-3.9,9.3l0,0c-2.5,2.5-5.7,3.9-9.3,3.9c-0.7,0-1.4-0.1-2-0.2c-2.7-0.4-5.2-1.6-7.3-3.7
					c-2.5-2.6-3.8-5.7-3.8-9.3s1.2-6.8,3.8-9.3c2-2,4.5-3.2,7.1-3.7c0.7-0.1,1.4-0.2,2.2-0.2C-131.8-211.7-128.7-210.4-126.2-207.9z
					"/>
			</g>
		</g>
	</g>
</g>
</svg>
