<?xml version="1.0" encoding="utf-8"?>
<!-- Generator: Adobe Illustrator 23.1.1, SVG Export Plug-In . SVG Version: 6.00 Build 0)  -->
<svg version="1.1" id="Ebene_1" xmlns="http://www.w3.org/2000/svg" xmlns:xlink="http://www.w3.org/1999/xlink" x="0px" y="0px"
	 viewBox="0 0 58 58" style="enable-background:new 0 0 58 58;" xml:space="preserve">
<g transform="matrix( 0.9666595458984375, 0, 0, 0.9666595458984375, 640.95,213.95) ">
	<g transform="matrix( 1, 0, 0, 1, 0,0) ">
		<g>
			<g id="Symbol_379_0_Layer0_0_FILL">
				<path d="M-611.9-212.5c-5.9-5.9-12.9-8.8-21.2-8.8s-15.3,2.9-21.2,8.8c-5.9,5.9-8.8,12.9-8.8,21.2s2.9,15.3,8.8,21.2
					c5.9,5.9,12.9,8.8,21.2,8.8s15.3-2.9,21.2-8.8c5.9-5.9,8.8-12.9,8.8-21.2S-606-206.6-611.9-212.5 M-631.7-201
					c0.6-0.4,1.2-0.6,1.7-0.6s1.1,0.2,1.7,0.6c0.4,0.3,0.9,0.5,1.4,0.6c0,0,0,0,0.1,0l0,0c0.4,0,0.8-0.1,1.2-0.3
					c1.4-0.6,2.4-0.9,2.9-0.9c0.7,0,1.2,0.3,1.5,1c0.2,0.3,0.3,0.7,0.2,1.1c0,0.5-0.2,1-0.5,1.6c-0.3,0.5-0.4,1-0.5,1.7
					c0,0-0.1,0.1-0.1,0.2c0,0.3,0,0.5,0.1,0.7c0.6,1.5,0.9,3,0.9,4.6c0,1.6-0.3,3.2-0.9,4.6c-0.1,0.2-0.1,0.4-0.1,0.7
					c0,0.1,0,0.1,0.1,0.1c0.1,0.7,0.2,1.2,0.5,1.7c0.3,0.6,0.5,1.2,0.5,1.6c0,0.4-0.1,0.8-0.2,1.1c-0.3,0.7-0.8,1-1.5,1
					c-0.5,0-1.5-0.3-2.9-0.9c-0.4-0.2-0.8-0.3-1.2-0.3l0,0c0,0-0.1,0-0.1,0.1c-0.5,0-1,0.2-1.4,0.5c-0.6,0.4-1.2,0.7-1.7,0.7
					s-1.1-0.2-1.7-0.6c-0.4-0.3-0.9-0.5-1.4-0.6v-0.1h-0.1c0,0,0,0,0,0.1c-0.5,0-1,0.2-1.4,0.5c-0.6,0.4-1.2,0.7-1.7,0.7
					s-1.1-0.2-1.7-0.7c-0.4-0.3-0.9-0.5-1.4-0.5v-0.1h-0.1c-0.4,0-0.8,0.1-1.2,0.3c-1.4,0.6-2.4,0.9-2.9,0.9c-0.7,0-1.2-0.4-1.5-1
					c-0.2-0.3-0.2-0.7-0.2-1.1c0-0.5,0.2-1,0.5-1.6c0.3-0.5,0.4-1,0.5-1.7v-0.1c0-0.3-0.1-0.5-0.1-0.7c-0.6-1.5-0.9-3-0.9-4.6
					c0-1.6,0.3-3.2,0.9-4.6c0.1-0.2,0.1-0.4,0.1-0.7c0-0.1,0-0.1,0-0.2c-0.1-0.7-0.2-1.2-0.5-1.7c-0.3-0.6-0.5-1.2-0.5-1.6
					s0.1-0.8,0.2-1.1c0.3-0.7,0.8-1,1.5-1c0.5,0,1.5,0.3,2.9,0.9c0.4,0.2,0.8,0.3,1.2,0.3h0.1l0,0c0.5,0,1-0.2,1.4-0.6
					c0.6-0.4,1.2-0.6,1.7-0.6s1.1,0.2,1.7,0.6c0.4,0.3,0.9,0.5,1.4,0.6l0,0h0.1l0,0C-632.6-200.5-632.1-200.7-631.7-201
					 M-625.9-196.3c0-0.2-0.1-0.3-0.2-0.3h-14.3c-0.2,0-0.3,0.1-0.2,0.3v11.1c0,0.2,0.1,0.3,0.2,0.3h14.3c0.2,0,0.2-0.1,0.2-0.3
					V-196.3z"/>
			</g>
		</g>
	</g>
</g>
</svg>
