<?xml version="1.0" encoding="utf-8"?>
<!-- Generator: Adobe Illustrator 23.1.1, SVG Export Plug-In . SVG Version: 6.00 Build 0)  -->
<svg version="1.1" id="Ebene_1" xmlns="http://www.w3.org/2000/svg" xmlns:xlink="http://www.w3.org/1999/xlink" x="0px" y="0px"
	 viewBox="0 0 58 58" style="enable-background:new 0 0 58 58;" xml:space="preserve">
<g transform="matrix( 0.9666595458984375, 0, 0, 0.9666595458984375, 31,92) ">
	<g transform="matrix( 1, 0, 0, 1, 0,0) ">
		<g>
			<g id="Symbol_85_0_Layer0_0_FILL">
				<path d="M19.1-86.4c-5.9-5.9-12.9-8.8-21.2-8.8s-15.3,2.9-21.2,8.8c-5.9,5.9-8.8,12.9-8.8,21.2s2.9,15.3,8.8,21.2
					s12.9,8.8,21.2,8.8s15.3-2.9,21.2-8.8s8.8-12.9,8.8-21.2S25-80.5,19.1-86.4 M-2.1-75.2c1.9,0.1,3.6,0.5,5.2,1.2
					c3,1.4,5.7,3.8,7.9,7.4c0.2,0.4,0.3,0.9,0.3,1.4c0,0.4-0.1,0.8-0.3,1.2c-2.2,3.6-4.9,6.1-7.9,7.4c-1.6,0.8-3.3,1.3-5.2,1.4
					c-1.9-0.1-3.6-0.6-5.2-1.2c-3-1.3-5.6-3.8-7.8-7.4c-0.3-0.4-0.4-0.8-0.4-1.2c0-0.5,0.1-1,0.4-1.4c2.2-3.6,4.8-6.1,7.8-7.4
					C-5.7-74.7-4-75.1-2.1-75.2 M2.5-69.9c-1.3-1.2-2.8-1.9-4.6-1.9h-0.2c-0.7,0-1.3,0.1-1.9,0.3c-1,0.3-1.9,0.8-2.7,1.6
					c-0.9,0.8-1.4,1.8-1.7,2.8c-0.2,0.6-0.2,1.2-0.2,1.9c0,1.8,0.7,3.4,2,4.7c1.2,1.4,2.7,2,4.5,2h0.2c1.8,0,3.3-0.7,4.6-1.9
					c1.3-1.3,2-2.9,1.9-4.7C4.4-67,3.8-68.6,2.5-69.9 M-2.1-68.5c0.9,0,1.6,0.3,2.2,1c0.7,0.7,1,1.4,1,2.3c0,0.9-0.3,1.7-1,2.4
					c-0.6,0.7-1.3,1-2.2,1h-0.2c-0.9,0-1.6-0.3-2.3-0.9c-0.7-0.7-1-1.4-1-2.3c0.9,0,1.7-0.3,2.3-1s1-1.5,1-2.4L-2.1-68.5L-2.1-68.5z
					"/>
			</g>
		</g>
	</g>
</g>
</svg>
