<?xml version="1.0" encoding="utf-8"?>
<!-- Generator: Adobe Illustrator 23.1.1, SVG Export Plug-In . SVG Version: 6.00 Build 0)  -->
<svg version="1.1" id="Ebene_1" xmlns="http://www.w3.org/2000/svg" xmlns:xlink="http://www.w3.org/1999/xlink" x="0px" y="0px"
	 viewBox="0 0 58 58" style="enable-background:new 0 0 58 58;" xml:space="preserve">
<g transform="matrix( 0.9666595458984375, 0, 0, 0.9666595458984375, 580,336) ">
	<g transform="matrix( 1, 0, 0, 1, 0,0) ">
		<g>
			<g id="Symbol_233_0_Layer0_0_FILL">
				<path d="M-548.8-338.8c-5.9-5.9-12.9-8.8-21.2-8.8c-8.3,0-15.4,2.9-21.2,8.8c-5.9,5.9-8.8,12.9-8.8,21.2
					c0,8.3,2.9,15.4,8.7,21.2c5.9,5.9,13,8.8,21.3,8.8c8.3,0,15.3-2.9,21.2-8.8c5.9-5.8,8.8-12.9,8.8-21.2
					C-540-325.9-542.9-332.9-548.8-338.8 M-564.6-318c-1.5-0.7-3.3-1.1-5.4-1.2c-2.1,0.1-3.9,0.5-5.4,1.2c-0.8,0.4-1.1,1.1-1,1.9
					l0.3,2.1c0.1,0.6-0.3,1-1.2,1.2l-4.9,1c-0.8,0.2-1.3,0-1.6-0.8c-0.4-0.9-0.7-1.8-0.9-2.7c-0.1-0.7,0-1.3,0.4-1.7
					c3.3-4.3,8.1-6.5,14.3-6.5c6.2,0,11,2.1,14.4,6.4c0.4,0.5,0.5,1.1,0.4,1.8c-0.2,0.9-0.6,1.8-0.9,2.7c-0.3,0.7-0.8,1-1.5,0.8
					l-4.9-1c-1.1-0.2-1.5-0.6-1.4-1.2l0.3-2.1C-563.4-316.9-563.8-317.6-564.6-318z"/>
			</g>
		</g>
	</g>
</g>
</svg>
