<?xml version="1.0" encoding="utf-8"?>
<!-- Generator: Adobe Illustrator 23.1.1, SVG Export Plug-In . SVG Version: 6.00 Build 0)  -->
<svg version="1.1" id="Ebene_1" xmlns="http://www.w3.org/2000/svg" xmlns:xlink="http://www.w3.org/1999/xlink" x="0px" y="0px"
	 viewBox="0 0 58 58" style="enable-background:new 0 0 58 58;" xml:space="preserve">
<g transform="matrix( 0.7249755859375, 0, 0, 0.7249755859375, 214,275) ">
	<g transform="matrix( 1, 0, 0, 1, 0,0) ">
		<g>
			<g id="Symbol_123_0_Layer0_0_FILL">
				<path d="M-227-367.5c-3.4-3.4-7-6-11-7.9c-5.2-2.6-10.9-3.9-17.2-3.9s-12,1.3-17.2,3.8c-4,1.9-7.6,4.6-11,7.9
					c-7.9,7.9-11.8,17.3-11.8,28.3c0,11,3.9,20.4,11.7,28.2c7.9,7.9,17.3,11.8,28.3,11.8c11,0,20.4-3.9,28.2-11.7
					c7.9-7.9,11.8-17.3,11.8-28.3C-215.2-350.3-219.1-359.7-227-367.5 M-252.2-364.3c0,0.8-0.3,1.5-0.9,2.1
					c-0.6,0.6-1.3,0.9-2.1,0.9s-1.5-0.3-2.1-0.9s-0.9-1.3-0.9-2.1s0.3-1.5,0.9-2.1s1.3-0.9,2.1-0.9s1.5,0.3,2.1,0.9
					C-252.5-365.8-252.2-365.1-252.2-364.3 M-232.3-341.4c0.6-0.6,1.3-0.9,2.1-0.9s1.5,0.3,2.1,0.9c0.6,0.6,0.9,1.3,0.9,2.1
					c0,0.8-0.3,1.5-0.9,2.1c-0.6,0.6-1.3,0.9-2.1,0.9s-1.5-0.3-2.1-0.9c-0.6-0.6-0.9-1.3-0.9-2.1
					C-233.2-340.1-232.9-340.8-232.3-341.4 M-255.2-317.3c0.8,0,1.5,0.3,2.1,0.9c0.6,0.6,0.9,1.3,0.9,2.1s-0.3,1.5-0.9,2.1
					c-0.6,0.6-1.3,0.9-2.1,0.9s-1.5-0.3-2.1-0.9s-0.9-1.3-0.9-2.1s0.3-1.5,0.9-2.1C-256.7-317-256-317.3-255.2-317.3 M-280.2-342.3
					c0.8,0,1.5,0.3,2.1,0.9s0.9,1.3,0.9,2.1c0,0.8-0.3,1.5-0.9,2.1c-0.6,0.6-1.3,0.9-2.1,0.9s-1.5-0.3-2.1-0.9
					c-0.6-0.6-0.9-1.3-0.9-2.1c0-0.8,0.3-1.5,0.9-2.1S-281-342.3-280.2-342.3z"/>
			</g>
		</g>
	</g>
</g>
</svg>
