<?xml version="1.0" encoding="utf-8"?>
<!-- Generator: Adobe Illustrator 23.1.1, SVG Export Plug-In . SVG Version: 6.00 Build 0)  -->
<svg version="1.1" id="Ebene_1" xmlns="http://www.w3.org/2000/svg" xmlns:xlink="http://www.w3.org/1999/xlink" x="0px" y="0px"
	 viewBox="0 0 58 58" style="enable-background:new 0 0 58 58;" xml:space="preserve">
<g transform="matrix( 0.48333740234375, 0, 0, 0.48333740234375, 275,275) ">
	<g transform="matrix( 1, 0, 0, 1, 0,0) ">
		<g>
			<g id="Symbol_124_0_Layer0_0_FILL">
				<path d="M-466.6-551.4c-11.7-11.7-25.8-17.6-42.4-17.6c-16.5,0-30.7,5.9-42.4,17.7c-11.7,11.6-17.6,25.8-17.6,42.3
					c0,16.6,5.9,30.7,17.7,42.4c11.6,11.7,25.8,17.6,42.3,17.6c16.6,0,30.7-5.9,42.4-17.6S-449-492.4-449-509
					C-449-525.5-454.9-539.7-466.6-551.4 M-509-557l5,5h-10L-509-557 M-552-504l-5-5l5-5V-504 M-461-509l-5,5v-10L-461-509
					 M-504-466l-5,5l-5-5H-504z"/>
			</g>
		</g>
	</g>
</g>
</svg>
