<?xml version="1.0" encoding="utf-8"?>
<!-- Generator: Adobe Illustrator 23.1.1, SVG Export Plug-In . SVG Version: 6.00 Build 0)  -->
<svg version="1.1" id="Ebene_1" xmlns="http://www.w3.org/2000/svg" xmlns:xlink="http://www.w3.org/1999/xlink" x="0px" y="0px"
	 viewBox="0 0 58 58" style="enable-background:new 0 0 58 58;" xml:space="preserve">
<g transform="matrix( -0.9666595458984375, 0, 0, 0.9666595458984375, 397,397) ">
	<g transform="matrix( 1, 0, 0, 1, 0,0) ">
		<g>
			<g>
				<path d="M401.9-401.9c-5.9-5.9-12.9-8.8-21.2-8.8c-8.3,0-15.3,2.9-21.2,8.8s-8.8,12.9-8.8,21.2c0,8.3,2.9,15.3,8.8,21.2
					s12.9,8.8,21.2,8.8c8.3,0,15.3-2.9,21.2-8.8s8.8-12.9,8.8-21.2C410.7-389,407.8-396,401.9-401.9 M387-392.4
					c0.6,0.6,0.6,1.2,0,1.9l-9.7,9.8l9.7,9.7c0.7,0.7,0.7,1.4,0.1,2.1l-1.7,1.7c-0.7,0.7-1.4,0.7-2.1,0l-13.4-13.5l13.4-13.5
					c0.7-0.7,1.3-0.7,2,0L387-392.4z"/>
			</g>
		</g>
	</g>
</g>
</svg>
