<?xml version="1.0" encoding="utf-8"?>
<!-- Generator: Adobe Illustrator 23.1.1, SVG Export Plug-In . SVG Version: 6.00 Build 0)  -->
<svg version="1.1" id="Ebene_1" xmlns="http://www.w3.org/2000/svg" xmlns:xlink="http://www.w3.org/1999/xlink" x="0px" y="0px"
	 viewBox="0 0 58 58" style="enable-background:new 0 0 58 58;" xml:space="preserve">
<g transform="matrix( 0.9666595458984375, 0, 0, 0.9666595458984375, 275,214) ">
	<g transform="matrix( 1, 0, 0, 1, 0,0) ">
		<g>
			<g id="Symbol_106_0_Layer0_0_FILL">
				<path d="M-233.3-212.6c-5.9-5.9-12.9-8.8-21.2-8.8c-8.3,0-15.4,2.9-21.2,8.8c-5.9,5.9-8.8,12.9-8.8,21.2s2.9,15.4,8.7,21.2
					c5.9,5.9,13,8.8,21.3,8.8c8.3,0,15.3-2.9,21.2-8.8c5.9-5.8,8.8-12.9,8.8-21.2S-227.4-206.7-233.3-212.6 M-246.1-198.1
					c0,1.2-0.4,2.2-1.3,3c-0.8,0.9-1.8,1.3-3,1.3c-0.9,0-1.8-0.3-2.5-0.8l-2.6,1.9c0.1,0.4,0.2,0.9,0.2,1.3s-0.1,0.9-0.2,1.3
					l2.6,1.9c0.7-0.6,1.6-0.8,2.5-0.8c1.2,0,2.2,0.4,3,1.2c0.9,0.9,1.3,1.9,1.3,3.1s-0.4,2.2-1.3,3c-0.8,0.9-1.8,1.3-3,1.3
					c-1.1,0-2.1-0.4-3-1.3c-0.8-0.8-1.2-1.8-1.2-3c0-0.5,0.1-0.9,0.2-1.3l-2.7-1.9c-0.7,0.5-1.6,0.8-2.5,0.8c-1.2,0-2.2-0.4-3-1.2
					c-0.8-0.8-1.2-1.8-1.2-3c0-1.2,0.4-2.2,1.2-3c0.8-0.8,1.8-1.2,3-1.2c1,0,1.8,0.3,2.5,0.8l2.6-2.1c-0.1-0.4-0.2-0.8-0.2-1.3
					c0-1.2,0.4-2.2,1.2-3c1-0.9,2-1.3,3.1-1.3c1.2,0,2.2,0.4,3,1.2C-246.5-200.3-246.1-199.3-246.1-198.1z"/>
			</g>
		</g>
	</g>
</g>
</svg>
