<?xml version="1.0" encoding="utf-8"?>
<!-- Generator: Adobe Illustrator 23.1.1, SVG Export Plug-In . SVG Version: 6.00 Build 0)  -->
<svg version="1.1" id="Ebene_1" xmlns="http://www.w3.org/2000/svg" xmlns:xlink="http://www.w3.org/1999/xlink" x="0px" y="0px"
	 viewBox="0 0 58 58" style="enable-background:new 0 0 58 58;" xml:space="preserve">
<g transform="matrix( 0.9666595458984375, 0, 0, 0.9666595458984375, 336,31) ">
	<g transform="matrix( 1, 0, 0, 1, 0,0) ">
		<g>
			<g id="Symbol_82_0_Layer0_0_FILL">
				<path d="M-296.4-23.3c-5.9-5.9-12.9-8.8-21.2-8.8c-8.3,0-15.3,2.9-21.2,8.8s-8.8,12.9-8.8,21.2s2.9,15.3,8.8,21.2
					s12.9,8.8,21.2,8.8c8.3,0,15.3-2.9,21.2-8.8s8.8-12.9,8.8-21.2S-290.5-17.4-296.4-23.3 M-312.1-12.1l4.5,4.4V5.6
					c-0.2,1.4-0.9,2.1-2.3,2.3h-15.5c-1.4-0.2-2.1-0.9-2.2-2.3V-9.9c0.1-1.4,0.8-2.1,2.2-2.2H-312.1 M-314.3,2.3
					c-0.2-2-1.3-3.1-3.3-3.3c-2,0.2-3.1,1.3-3.3,3.3c0.2,2.1,1.3,3.2,3.3,3.3C-315.6,5.5-314.5,4.4-314.3,2.3 M-314.3-5.5v-4.4
					h-11.1v4.4H-314.3z"/>
			</g>
		</g>
	</g>
</g>
</svg>
