<?xml version="1.0" encoding="utf-8"?>
<!-- Generator: Adobe Illustrator 23.1.1, SVG Export Plug-In . SVG Version: 6.00 Build 0)  -->
<svg version="1.1" id="Ebene_1" xmlns="http://www.w3.org/2000/svg" xmlns:xlink="http://www.w3.org/1999/xlink" x="0px" y="0px"
	 viewBox="0 0 58 58" style="enable-background:new 0 0 58 58;" xml:space="preserve">
<g transform="matrix( 0.9666595458984375, 0, 0, 0.9666595458984375, 92,31) ">
	<g transform="matrix( 1, 0, 0, 1, 0,0) ">
		<g>
			<g id="Symbol_78_0_Layer0_0_FILL">
				<path d="M-44-23.3c-5.9-5.9-12.9-8.8-21.2-8.8s-15.3,2.9-21.2,8.8c-5.9,5.9-8.8,12.9-8.8,21.2s2.9,15.3,8.8,21.2
					c5.9,5.9,12.9,8.8,21.2,8.8S-49.9,25-44,19.1s8.8-12.9,8.8-21.2S-38.1-17.4-44-23.3 M-62.6-10.4c0,0.8-0.2,1.4-0.7,1.9
					c-0.5,0.6-1.2,0.8-1.9,0.8c-0.8,0-1.4-0.3-1.9-0.8c-0.1-0.1-0.2-0.2-0.2-0.3c-0.4-0.5-0.5-1-0.5-1.6c0-0.7,0.3-1.4,0.8-1.9
					c0.4-0.5,1-0.8,1.8-0.8c0.7,0,1.4,0.3,1.9,0.8C-62.8-11.8-62.6-11.1-62.6-10.4 M-63.4-4c0.1,0.1,0.2,0.2,0.3,0.2
					c0.3,0.5,0.5,1,0.5,1.6s-0.2,1.2-0.5,1.7c-0.1,0.1-0.2,0.2-0.3,0.3c-0.5,0.5-1.1,0.8-1.8,0.8c-0.7,0-1.4-0.3-1.9-0.8
					s-0.8-1.1-0.8-1.9s0.2-1.4,0.7-1.9c0.6-0.5,1.2-0.8,2-0.8C-64.5-4.8-63.9-4.5-63.4-4 M-63.3,8.1c-0.5,0.5-1.2,0.8-1.9,0.8
					c-0.8,0-1.4-0.3-1.9-0.8s-0.8-1.2-0.8-1.9c0-0.6,0.2-1.2,0.5-1.6c0.1-0.1,0.2-0.2,0.3-0.3c0.5-0.6,1.1-0.9,1.9-0.9
					c0.7,0,1.4,0.3,1.9,0.8s0.7,1.1,0.7,1.9S-62.8,7.6-63.3,8.1z"/>
			</g>
		</g>
	</g>
</g>
</svg>
