<?xml version="1.0" encoding="utf-8"?>
<!-- Generator: Adobe Illustrator 23.1.1, SVG Export Plug-In . SVG Version: 6.00 Build 0)  -->
<svg version="1.1" id="Ebene_1" xmlns="http://www.w3.org/2000/svg" xmlns:xlink="http://www.w3.org/1999/xlink" x="0px" y="0px"
	 viewBox="0 0 58 58" style="enable-background:new 0 0 58 58;" xml:space="preserve">
<g transform="matrix( 0.9666595458984375, 0, 0, 0.9666595458984375, 275,336) ">
	<g transform="matrix( 1, 0, 0, 1, 0,0) ">
		<g>
			<g id="Symbol_146_0_Layer0_0_FILL">
				<path d="M-233.3-338.8c-5.9-5.9-12.9-8.8-21.2-8.8c-8.2,0-15.2,2.9-21.1,8.8s-8.9,13-8.9,21.2c0,8.3,3,15.3,8.9,21.2
					s12.9,8.8,21.1,8.8c8.3,0,15.3-2.9,21.2-8.8c5.9-5.9,8.8-12.9,8.8-21.2C-224.5-325.8-227.4-332.9-233.3-338.8 M-254.5-342.1
					c6.8,0,12.6,2.4,17.4,7.2c4.8,4.7,7.2,10.5,7.2,17.3c0,6.8-2.4,12.6-7.2,17.4c-4.8,4.8-10.6,7.2-17.4,7.2
					c-6.7,0-12.5-2.4-17.3-7.2c-4.8-4.8-7.2-10.6-7.2-17.4c0-6.8,2.4-12.6,7.2-17.3C-267-339.7-261.2-342.1-254.5-342.1
					 M-258.9-331.6v28l13.8-14L-258.9-331.6z"/>
			</g>
		</g>
	</g>
</g>
</svg>
