<?xml version="1.0" encoding="utf-8"?>
<!-- Generator: Adobe Illustrator 23.1.1, SVG Export Plug-In . SVG Version: 6.00 Build 0)  -->
<svg version="1.1" id="Ebene_1" xmlns="http://www.w3.org/2000/svg" xmlns:xlink="http://www.w3.org/1999/xlink" x="0px" y="0px"
	 viewBox="0 0 58 58" style="enable-background:new 0 0 58 58;" xml:space="preserve">
<g transform="matrix( 0.9666595458984375, 0, 0, 0.9666595458984375, 153,153) ">
	<g transform="matrix( 1, 0, 0, 1, 0,0) ">
		<g>
			<g id="Symbol_95_0_Layer0_0_FILL">
				<path d="M-107.1-149.5c-5.9-5.9-12.9-8.8-21.2-8.8s-15.3,2.9-21.2,8.8c-5.9,5.9-8.8,12.9-8.8,21.2s2.9,15.3,8.8,21.2
					c5.9,5.9,12.9,8.8,21.2,8.8s15.3-2.9,21.2-8.8c5.9-5.9,8.8-12.9,8.8-21.2S-101.2-143.6-107.1-149.5 M-121.1-134.6
					c0.3-1,0.9-1.4,1.7-1.3c0.7,0.2,1.1,0.8,1,1.8l-1.1,6.2c0.1,1.7-0.1,3.4-0.5,5.1c-0.4,1.9-0.9,3.4-1.5,4.5
					c-0.6,1.1-0.9,1.9-0.9,2.5h-8.5c-0.5-1.3-1.4-2.5-2.5-3.5c-1.1-0.9-1.9-1.8-2.4-2.8c-0.8-1.6-1.6-3.1-2.2-4.5
					c-0.6-1.5-0.3-2.4,0.7-2.8c0.8-0.3,1.6,0.1,2.4,1.2l1.7,2.3l-1.7-10.8c-0.1-1.3,0.2-2.1,1.1-2.3c1-0.2,1.8,0.4,2.2,1.5l1.8,8.2
					v-9.8c0.1-1.1,0.7-1.7,1.8-1.7c1.1,0,1.6,0.5,1.7,1.6v9.7l1-8.1c0.3-1.2,0.9-1.6,2-1.4c0.8,0.2,1.2,0.8,1.3,1.6l-1,9.2
					L-121.1-134.6z"/>
			</g>
		</g>
	</g>
</g>
</svg>
