<?xml version="1.0" encoding="utf-8"?>
<!-- Generator: Adobe Illustrator 23.1.1, SVG Export Plug-In . SVG Version: 6.00 Build 0)  -->
<svg version="1.1" id="Ebene_1" xmlns="http://www.w3.org/2000/svg" xmlns:xlink="http://www.w3.org/1999/xlink" x="0px" y="0px"
	 viewBox="0 0 58 58" style="enable-background:new 0 0 58 58;" xml:space="preserve">
<g transform="matrix( 0.9666595458984375, 0, 0, 0.9666595458984375, 92,336) ">
	<g transform="matrix( 1, 0, 0, 1, 0,0) ">
		<g>
			<g id="Symbol_138_0_Layer0_0_FILL">
				<path d="M-44-338.8c-5.9-5.9-12.9-8.8-21.2-8.8s-15.3,2.9-21.2,8.8c-5.9,5.9-8.8,12.9-8.8,21.2c0,8.3,2.9,15.3,8.8,21.2
					c5.9,5.9,12.9,8.8,21.2,8.8s15.3-2.9,21.2-8.8s8.8-12.9,8.8-21.2C-35.2-325.9-38.1-332.9-44-338.8 M-63.1-331.4
					c3.2,0,5.9,1.1,8.1,3.4c0.3,0.3,0.5,0.5,0.7,0.8c-1.6-1.3-3.5-1.9-5.6-1.9c-2.6,0-4.8,0.9-6.6,2.7c-0.7,0.7-1.3,1.5-1.7,2.3
					c-0.1,0.2-0.1,0.3-0.2,0.5c-0.1,0.1-0.2,0.3-0.2,0.4c0,0.1,0,0.1,0,0.2c-0.1,0.2-0.2,0.3-0.2,0.4l3.8,3.8h-11.2V-330l3.5,3.5
					c0.1,0,0.2,0,0.3-0.1c0-0.1,0.1-0.1,0.1-0.1l0.1-0.2l0.1-0.1c0.1-0.1,0.1-0.2,0.2-0.2l0.1-0.1c0.2-0.2,0.4-0.4,0.6-0.6
					C-68.9-330.3-66.2-331.5-63.1-331.4 M-54.2-316.5v11.2l-3.6-3.5c0,0.1-0.1,0.1-0.2,0.2c0,0.1-0.1,0.1-0.1,0.1l-0.1,0.2l-0.1,0.1
					c0,0.1-0.1,0.1-0.2,0.2c0,0-0.1,0.1-0.1,0.2c-0.2,0.2-0.4,0.4-0.6,0.6c-2.3,2.3-5,3.4-8.1,3.4c-3.2,0-5.9-1.1-8.1-3.4
					c-0.3-0.3-0.5-0.5-0.7-0.8c1.6,1.3,3.5,1.9,5.6,1.9c2.6,0,4.8-0.9,6.6-2.7c0.7-0.7,1.3-1.5,1.7-2.4c0.1-0.2,0.1-0.3,0.2-0.5
					c0.1-0.1,0.2-0.3,0.2-0.4c0-0.1,0-0.1,0-0.2c0.1-0.1,0.1-0.2,0.1-0.3l-3.8-3.8h11.3V-316.5z"/>
			</g>
		</g>
	</g>
</g>
</svg>
