<?xml version="1.0" encoding="utf-8"?>
<!-- Generator: Adobe Illustrator 23.1.1, SVG Export Plug-In . SVG Version: 6.00 Build 0)  -->
<svg version="1.1" id="Ebene_1" xmlns="http://www.w3.org/2000/svg" xmlns:xlink="http://www.w3.org/1999/xlink" x="0px" y="0px"
	 viewBox="0 0 58 58" style="enable-background:new 0 0 58 58;" xml:space="preserve">
<g transform="matrix( 0.68353271484375, 0.68353271484375, -0.68353271484375, 0.68353271484375, 519,275) ">
	<g transform="matrix( 1, 0, 0, 1, 0,0) ">
		<g>
			<g id="Symbol_214_0_Layer0_0_FILL">
				<path d="M-517.2,157.3c-5.9-5.9-12.9-8.8-21.2-8.8c-8.2,0-15.2,2.9-21.1,8.8c-5.9,5.9-8.9,13-8.9,21.2c0,8.3,3,15.3,8.9,21.2
					c5.9,5.9,12.9,8.8,21.1,8.8c8.3,0,15.3-2.9,21.2-8.8c5.9-5.9,8.8-12.9,8.8-21.2C-508.4,170.3-511.3,163.2-517.2,157.3
					 M-535.3,175.3h9.5c0.9,0,1.3,0.5,1.3,1.2v3.7c0,0.8-0.5,1.2-1.3,1.2h-9.5v9.5c0,0.9-0.4,1.4-1.3,1.4h-3.5
					c-0.9,0-1.4-0.5-1.4-1.4v-9.3h-9.4c-0.9,0-1.4-0.4-1.4-1.3v-3.5c0-0.9,0.5-1.4,1.4-1.4h9.4v-9.5c0-0.9,0.4-1.3,1.3-1.3h3.6
					c0.8,0,1.2,0.4,1.2,1.3L-535.3,175.3L-535.3,175.3z"/>
			</g>
		</g>
	</g>
</g>
</svg>
