<?xml version="1.0" encoding="utf-8"?>
<!-- Generator: Adobe Illustrator 23.1.1, SVG Export Plug-In . SVG Version: 6.00 Build 0)  -->
<svg version="1.1" id="Ebene_1" xmlns="http://www.w3.org/2000/svg" xmlns:xlink="http://www.w3.org/1999/xlink" x="0px" y="0px"
	 viewBox="0 0 58 58" style="enable-background:new 0 0 58 58;" xml:space="preserve">
<g transform="matrix( 0.9666595458984375, 0, 0, 0.9666595458984375, 92,397) ">
	<g transform="matrix( 1, 0, 0, 1, 0,0) ">
		<g>
			<g id="Symbol_164_0_Layer0_0_FILL">
				<path d="M-44-401.9c-5.9-5.9-12.9-8.8-21.2-8.8s-15.3,2.9-21.2,8.8c-5.9,5.9-8.8,12.9-8.8,21.2c0,8.3,2.9,15.3,8.8,21.2
					c5.9,5.9,12.9,8.8,21.2,8.8s15.3-2.9,21.2-8.8s8.8-12.9,8.8-21.2C-35.2-389-38.1-396-44-401.9 M-65.2-377.3
					c0.4,0,0.8-0.2,1.1-0.4l9.4-8.2v13.4h-21v-13.4l9.5,8.2C-65.9-377.4-65.6-377.3-65.2-377.3 M-64.1-380.7
					c-0.3,0.3-0.7,0.4-1.1,0.4c-0.4,0-0.7-0.1-1-0.4l-9.4-8.2h21L-64.1-380.7z"/>
			</g>
		</g>
	</g>
</g>
</svg>
