<?xml version="1.0" encoding="utf-8"?>
<!-- Generator: Adobe Illustrator 23.1.1, SVG Export Plug-In . SVG Version: 6.00 Build 0)  -->
<svg version="1.1" id="Ebene_1" xmlns="http://www.w3.org/2000/svg" xmlns:xlink="http://www.w3.org/1999/xlink" x="0px" y="0px"
	 viewBox="0 0 58 58" style="enable-background:new 0 0 58 58;" xml:space="preserve">
<g transform="matrix( 0.9666595458984375, 0, 0, 0.9666595458984375, 580,92) ">
	<g transform="matrix( 1, 0, 0, 1, 0,0) ">
		<g>
			<g id="Symbol_227_0_Layer0_0_FILL">
				<path d="M-548.8-86.4c-5.9-5.9-12.9-8.8-21.2-8.8c-8.3,0-15.3,2.9-21.2,8.8c-5.9,5.9-8.8,12.9-8.8,21.2c0,1.2,0.1,2.3,0.1,3.4
					c0.7,6.8,3.6,12.8,8.6,17.8c6,5.9,13,8.8,21.3,8.8c8.3,0,15.3-2.9,21.2-8.8c5-5,7.9-11,8.6-17.8c0.1-1.1,0.2-2.2,0.2-3.4
					C-540-73.5-542.9-80.5-548.8-86.4 M-570-79.8c1.2,0,2.2,0.4,3,1.3c0.8,0.8,1.2,1.8,1.2,3v4.4l5.8-5.8l1.6,1.6l-7.3,7.4v3
					c0,1.2-0.4,2.2-1.2,3c0,0,0,0,0,0.1c-0.9,0.8-1.9,1.2-3.1,1.2l0,0c-0.9,0-1.6-0.2-2.3-0.6l-1.2,1.2c0.6,0.4,1.3,0.7,2.1,0.9
					c0.4,0.1,0.9,0.1,1.4,0.1c0.7,0,1.3-0.1,1.8-0.2c0.8-0.2,1.6-0.6,2.2-1.2c0.5-0.4,0.9-0.9,1.1-1.4c0.2-0.4,0.4-0.7,0.4-1.2
					c0.1-0.3,0.1-0.7,0.1-1v-4.8h2.6v6.3c0,0.3,0,0.5-0.1,0.7c-0.1,1.4-0.8,2.6-2.2,3.6c-1.2,1-2.7,1.5-4.3,1.7c0,0-0.1,0-0.1,0.1
					v2.8h3.6v3h-10.3v-3h3.7v-2.9c-0.7,0-1.5-0.2-2.1-0.5c-0.7-0.2-1.4-0.5-2-1l-4.5,4.5l-1.6-1.6l4.4-4.4c-0.5-0.7-0.9-1.5-1-2.3
					c0-0.2-0.1-0.5-0.1-0.7v-6.3h2.6v4.8c0,0.8,0.2,1.5,0.5,2.2l0.1,0.1l1.2-1.3c-0.1-0.5-0.3-1.2-0.3-1.9v-10.5
					c0-1.2,0.4-2.2,1.2-3C-572.2-79.4-571.2-79.8-570-79.8z"/>
			</g>
		</g>
	</g>
</g>
</svg>
