<?xml version="1.0" encoding="utf-8"?>
<!-- Generator: Adobe Illustrator 23.1.1, SVG Export Plug-In . SVG Version: 6.00 Build 0)  -->
<svg version="1.1" id="Ebene_1" xmlns="http://www.w3.org/2000/svg" xmlns:xlink="http://www.w3.org/1999/xlink" x="0px" y="0px"
	 viewBox="0 0 58 58" style="enable-background:new 0 0 58 58;" xml:space="preserve">
<g transform="matrix( 0.9666595458984375, 0, 0, 0.9666595458984375, 214,214) ">
	<g transform="matrix( 1, 0, 0, 1, 0,0) ">
		<g>
			<g id="Symbol_104_0_Layer0_0_FILL">
				<path d="M-161.4-221.4h-30c-8.3,0-15.3,2.9-21.2,8.8c-5.9,5.9-8.8,12.9-8.8,21.2s2.9,15.3,8.8,21.2c5.9,5.9,12.9,8.8,21.2,8.8
					h30V-221.4 M-191.4-206.4c4.1,0,7.7,1.5,10.6,4.4c2.9,2.9,4.4,6.5,4.4,10.6s-1.5,7.7-4.4,10.6c-2.9,2.9-6.5,4.4-10.6,4.4
					s-7.7-1.5-10.6-4.4c-2.9-2.9-4.4-6.5-4.4-10.6s1.5-7.7,4.4-10.6C-199.1-204.9-195.5-206.4-191.4-206.4 M-185-193h-4.9v-4.8
					c0-0.4-0.2-0.7-0.6-0.7h-1.8c-0.5,0-0.7,0.2-0.7,0.7v4.8h-4.8c-0.5,0-0.7,0.2-0.7,0.7v1.8c0,0.4,0.2,0.6,0.7,0.6h4.8v4.8
					c0,0.5,0.2,0.7,0.7,0.7h1.8c0.4,0,0.6-0.2,0.6-0.7v-4.8h4.9c0.4,0,0.6-0.2,0.6-0.6v-1.9C-184.3-192.8-184.6-193-185-193z"/>
			</g>
		</g>
	</g>
</g>
</svg>
