<?xml version="1.0" encoding="utf-8"?>
<!-- Generator: Adobe Illustrator 23.1.1, SVG Export Plug-In . SVG Version: 6.00 Build 0)  -->
<svg version="1.1" id="Ebene_1" xmlns="http://www.w3.org/2000/svg" xmlns:xlink="http://www.w3.org/1999/xlink" x="0px" y="0px"
	 viewBox="0 0 58 58" style="enable-background:new 0 0 58 58;" xml:space="preserve">
<g transform="matrix( 0.9666595458984375, 0, 0, 0.9666595458984375, 31,397) ">
	<g transform="matrix( 1, 0, 0, 1, 0,0) ">
		<g>
			<g id="Symbol_161_0_Layer0_0_FILL">
				<path d="M19.1-401.9c-5.9-5.9-12.9-8.8-21.2-8.8c-8.2,0-15.2,2.9-21.1,8.8s-8.9,13-8.9,21.2c0,8.3,3,15.3,8.9,21.2
					s12.9,8.8,21.1,8.8c8.3,0,15.3-2.9,21.2-8.8s8.8-12.9,8.8-21.2C27.9-388.9,25-396,19.1-401.9 M-2.1-405.2
					c6.8,0,12.6,2.4,17.4,7.2c4.8,4.7,7.2,10.5,7.2,17.3c0,6.8-2.4,12.6-7.2,17.4c-4.8,4.8-10.6,7.2-17.4,7.2
					c-6.7,0-12.5-2.4-17.3-7.2c-4.8-4.8-7.2-10.6-7.2-17.4c0-6.8,2.4-12.6,7.2-17.3C-14.6-402.8-8.8-405.2-2.1-405.2 M11.9-382.6
					c0-0.8-0.5-1.2-1.3-1.2h-25.2c-0.9,0-1.4,0.5-1.4,1.4v3.5c0,0.9,0.5,1.3,1.4,1.3h25.2c0.9,0,1.3-0.4,1.3-1.2V-382.6z"/>
			</g>
		</g>
	</g>
</g>
</svg>
