<?xml version="1.0" encoding="utf-8"?>
<!-- Generator: Adobe Illustrator 23.1.1, SVG Export Plug-In . SVG Version: 6.00 Build 0)  -->
<svg version="1.1" id="Ebene_1" xmlns="http://www.w3.org/2000/svg" xmlns:xlink="http://www.w3.org/1999/xlink" x="0px" y="0px"
	 viewBox="0 0 58 58" style="enable-background:new 0 0 58 58;" xml:space="preserve">
<g transform="matrix( 0.9666595458984375, 0, 0, 0.9666595458984375, 153,397) ">
	<g transform="matrix( 1, 0, 0, 1, 0,0) ">
		<g>
			<g id="Symbol_198_0_Layer0_0_FILL">
				<path d="M-107.1-401.9c-5.9-5.9-12.9-8.8-21.2-8.8s-15.3,2.9-21.2,8.8c-5.9,5.9-8.8,12.9-8.8,21.2c0,8.3,2.9,15.3,8.8,21.2
					c5.9,5.9,12.9,8.8,21.2,8.8s15.3-2.9,21.2-8.8c5.9-5.9,8.8-12.9,8.8-21.2C-98.3-389-101.2-396-107.1-401.9 M-119.3-383
					c0.6,0,0.9,0.3,0.9,0.9v2.6c0.1,0.7-0.3,1-0.9,1h-18c-0.7,0-1-0.3-1-0.9v-2.5c0-0.7,0.3-1,1-1h18V-383z"/>
			</g>
		</g>
	</g>
</g>
</svg>
