<?xml version="1.0" encoding="utf-8"?>
<!-- Generator: Adobe Illustrator 23.1.1, SVG Export Plug-In . SVG Version: 6.00 Build 0)  -->
<svg version="1.1" id="Ebene_1" xmlns="http://www.w3.org/2000/svg" xmlns:xlink="http://www.w3.org/1999/xlink" x="0px" y="0px"
	 viewBox="0 0 58 58" style="enable-background:new 0 0 58 58;" xml:space="preserve">
<g transform="matrix( 0.9666595458984375, 0, 0, 0.9666595458984375, 336,92) ">
	<g transform="matrix( 1, 0, 0, 1, 0,0) ">
		<g>
			<g id="Symbol_90_0_Layer0_0_FILL">
				<path d="M-296.4-86.4c-5.9-5.9-12.9-8.8-21.2-8.8c-8.3,0-15.3,2.9-21.2,8.8c-5.9,5.9-8.8,12.9-8.8,21.2s2.9,15.3,8.8,21.2
					s12.9,8.8,21.2,8.8c8.3,0,15.3-2.9,21.2-8.8s8.8-12.9,8.8-21.2S-290.5-80.5-296.4-86.4 M-312.1-71.4h2c0.7,0,1,0.3,1,1v2.2
					c0,0.7-0.3,1.1-1,1.1h-0.2C-310.5-68.7-311.1-70.1-312.1-71.4 M-313.9-72.3c0.3,0.3,0.6,0.6,0.8,0.9c1,1.3,1.7,2.7,2,4.3
					c0.1,0.6,0.1,1.3,0.1,1.9v9.8h-8c-0.6,0.1-1.3,0.1-2,0.1c-2.7,0-5.1-1-7-2.9c-2-1.9-2.9-4.3-2.9-7c0-2.8,1-5.1,2.9-7
					c2-2,4.3-2.9,7-2.9C-318.1-75.2-315.8-74.2-313.9-72.3 M-306.5-58.7c0-0.3,0.1-0.5,0.3-0.7c0.2-0.2,0.5-0.4,0.8-0.4
					c0.3,0,0.6,0.1,0.8,0.4c0.2,0.2,0.4,0.5,0.3,0.7v2.1c0.1,0.9-0.3,1.3-1.1,1.2h-4.9V-58h3.8V-58.7 M-314.5-67.1
					c-0.2-0.7-0.5-1.3-0.9-1.9c-0.2-0.3-0.5-0.6-0.8-1c-1.3-1.2-2.9-1.9-4.7-1.9s-3.4,0.7-4.7,1.9c-1.3,1.4-2,3-2,4.8
					c0,1.8,0.7,3.4,2,4.7c1.3,1.3,2.9,1.9,4.7,1.9c1.9,0,3.4-0.6,4.7-1.9c1.3-1.3,1.9-2.9,1.9-4.7
					C-314.3-65.9-314.3-66.5-314.5-67.1 M-315.8-65.2c0,1.4-0.5,2.6-1.5,3.6s-2.2,1.5-3.7,1.5c-1.3,0.1-2.6-0.4-3.6-1.5
					c-1-1-1.5-2.2-1.5-3.6c0-1.4,0.5-2.7,1.5-3.7c1-1,2.2-1.5,3.6-1.5c1.5,0,2.7,0.5,3.7,1.5S-315.8-66.6-315.8-65.2z"/>
			</g>
		</g>
	</g>
</g>
</svg>
