<?xml version="1.0" encoding="utf-8"?>
<!-- Generator: Adobe Illustrator 23.1.1, SVG Export Plug-In . SVG Version: 6.00 Build 0)  -->
<svg version="1.1" id="Ebene_1" xmlns="http://www.w3.org/2000/svg" xmlns:xlink="http://www.w3.org/1999/xlink" x="0px" y="0px"
	 viewBox="0 0 58 58" style="enable-background:new 0 0 58 58;" xml:space="preserve">
<g transform="matrix( 0.9666595458984375, 0, 0, 0.9666595458984375, 458,214) ">
	<g transform="matrix( 1, 0, 0, 1, 0,0) ">
		<g>
			<g id="Symbol_107_0_Layer0_0_FILL">
				<path d="M-422.6-212.6c-5.9-5.9-12.9-8.8-21.2-8.8c-8.3,0-15.4,2.9-21.2,8.8c-5.9,5.9-8.8,12.9-8.8,21.2s2.9,15.4,8.7,21.2
					c5.9,5.9,13,8.8,21.3,8.8c8.3,0,15.3-2.9,21.2-8.8c5.9-5.8,8.8-12.9,8.8-21.2S-416.7-206.7-422.6-212.6 M-443.8-200.4
					c2.1,0.1,3.9,0.7,5.4,2c1.5,1.2,2.5,2.8,2.9,4.8c1.5,0.1,2.7,0.7,3.6,1.7c1,1,1.5,2.3,1.5,3.8c0,1.6-0.6,2.9-1.6,4
					c-1.1,1-2.4,1.6-4,1.6h-14.5c-1.9,0-3.5-0.7-4.7-2c-1.3-1.2-1.9-2.8-2-4.7c0.1-1.8,0.6-3.3,1.7-4.5c1.1-1.2,2.5-1.9,4.3-2.1
					c0.7-1.4,1.7-2.5,3-3.3C-446.9-199.9-445.4-200.3-443.8-200.4z"/>
			</g>
		</g>
	</g>
</g>
</svg>
