<?xml version="1.0" encoding="utf-8"?>
<!-- Generator: Adobe Illustrator 23.1.1, SVG Export Plug-In . SVG Version: 6.00 Build 0)  -->
<svg version="1.1" id="Ebene_1" xmlns="http://www.w3.org/2000/svg" xmlns:xlink="http://www.w3.org/1999/xlink" x="0px" y="0px"
	 viewBox="0 0 58 58" style="enable-background:new 0 0 58 58;" xml:space="preserve">
<g transform="matrix( 1, 0, 0, 1, 580,214) ">
	<g transform="matrix( 1, 0, 0, 1, 0,0) ">
		<g>
			<g id="Symbol_231_0_Layer0_0_FILL">
				<path d="M-530.5-205.5c-5.7-5.7-12.5-8.5-20.5-8.5s-14.8,2.8-20.5,8.5c-5.7,5.7-8.5,12.5-8.5,20.5s2.8,14.8,8.5,20.5
					c5.7,5.7,12.5,8.5,20.5,8.5s14.8-2.8,20.5-8.5c5.7-5.7,8.5-12.5,8.5-20.5S-524.8-199.8-530.5-205.5 M-548.5-193.2v-2.2
					c1.7,0.2,3.3,0.8,4.6,1.7l2.6-2.7l1.5,1.5l-2.5,2.6c0.4,0.4,0.8,0.9,1.1,1.3c1.3,1.7,1.8,3.7,1.8,6c0,2.9-1.1,5.3-3.1,7.4
					c-1.6,1.6-3.8,2.7-6.1,2.9v-2.2c1.7-0.2,3.3-1,4.5-2.3c1.6-1.5,2.5-3.5,2.5-5.8c0-1.6-0.4-3.1-1.2-4.4c-0.4-0.5-0.8-0.9-1.2-1.4
					l-2.6,2.5c0.4,0.5,0.7,1,1,1.4c0.2,0.6,0.3,1.2,0.3,1.7c0,1.3-0.5,2.4-1.4,3.3c-0.6,0.6-1.3,1-2,1.2v-2.5
					c0.1-0.1,0.3-0.2,0.4-0.3c0.4-0.4,0.6-0.8,0.7-1.3c0-0.1,0-0.2,0-0.4c0-0.6-0.2-1.1-0.5-1.4l-3.1,3v8.8h-0.1l-4.3-4.4l-5.3,5.3
					l-1.5-1.5l5.3-5.3l-1-1h-4.7v-7.1h4.7l6.9-6.9h0.1v8.9l2.5-2.5v-0.5c0.1,0,0.2,0.1,0.4,0.1l2.7-2.7
					C-546.4-192.6-547.4-193-548.5-193.2z"/>
			</g>
		</g>
	</g>
</g>
</svg>
