<?xml version="1.0" encoding="utf-8"?>
<!-- Generator: Adobe Illustrator 23.1.1, SVG Export Plug-In . SVG Version: 6.00 Build 0)  -->
<svg version="1.1" id="Ebene_1" xmlns="http://www.w3.org/2000/svg" xmlns:xlink="http://www.w3.org/1999/xlink" x="0px" y="0px"
	 viewBox="0 0 58 58" style="enable-background:new 0 0 58 58;" xml:space="preserve">
<g transform="matrix( 0.9666595458984375, 0, 0, 0.9666595458984375, 336,214) ">
	<g transform="matrix( 1, 0, 0, 1, 0,0) ">
		<g>
			<g id="Symbol_109_0_Layer0_0_FILL">
				<path d="M-296.4-212.6c-5.9-5.9-12.9-8.8-21.2-8.8c-8.3,0-15.4,2.9-21.2,8.8c-5.9,5.9-8.8,12.9-8.8,21.2s2.9,15.4,8.7,21.2
					c5.9,5.9,13,8.8,21.3,8.8c8.3,0,15.3-2.9,21.2-8.8c5.9-5.8,8.8-12.9,8.8-21.2S-290.5-206.7-296.4-212.6 M-313.7-194.7h5.1l-9,9
					l-9-9h5.1v-7.7h7.8V-194.7 M-308.6-183v2.6h-18v-2.6H-308.6z"/>
			</g>
		</g>
	</g>
</g>
</svg>
