<?xml version="1.0" encoding="utf-8"?>
<!-- Generator: Adobe Illustrator 23.1.1, SVG Export Plug-In . SVG Version: 6.00 Build 0)  -->
<svg version="1.1" id="Ebene_1" xmlns="http://www.w3.org/2000/svg" xmlns:xlink="http://www.w3.org/1999/xlink" x="0px" y="0px"
	 viewBox="0 0 58 58" style="enable-background:new 0 0 58 58;" xml:space="preserve">
<g transform="matrix( 0.9666595458984375, 0, 0, 0.9666595458984375, 214,153) ">
	<g transform="matrix( 1, 0, 0, 1, 0,0) ">
		<g>
			<g id="Symbol_96_0_Layer0_0_FILL">
				<path d="M-170.2-149.5c-5.9-5.9-12.9-8.8-21.2-8.8s-15.3,2.9-21.2,8.8c-5.9,5.9-8.8,12.9-8.8,21.2c0,4.7,1,9.1,2.9,13
					c1.4,2.9,3.4,5.7,5.9,8.1c5.9,6,12.9,8.9,21.2,8.9s15.3-2.9,21.2-8.8c5.9-5.9,8.8-12.9,8.8-21.2S-164.3-143.6-170.2-149.5
					 M-191.4-141.4c0.6,0,1.1,0,1.7,0.1c2.9,0.3,5.4,1.6,7.5,3.7c0.2,0.2,0.3,0.4,0.5,0.6c1.9,2,3,4.4,3.3,7c0,0.6,0.1,1.1,0.1,1.7
					c0,0.6,0,1.1-0.1,1.7c0,0.1,0,0.3-0.1,0.5c-0.4,2.7-1.7,5-3.7,7c-2.1,2.2-4.6,3.4-7.5,3.8c-0.6,0-1.1,0.1-1.7,0.1
					c-0.3,0-0.5,0-0.7,0c-0.3,0-0.6-0.1-0.9-0.1c-2.9-0.3-5.4-1.6-7.6-3.7c-2-2-3.2-4.4-3.6-7c-0.2-0.3-0.2-0.5-0.2-0.6
					c-0.1-0.6-0.1-1.1-0.1-1.7c0-0.6,0-1.1,0.1-1.7c0.3-2.9,1.6-5.4,3.7-7.6c2.2-2.1,4.7-3.4,7.6-3.7
					C-192.5-141.4-192-141.4-191.4-141.4 M-185.3-130h3.6c-0.3-2-1.2-3.7-2.8-5.3c-1.5-1.5-3.2-2.4-5.2-2.7v3.5h-3.4v-3.5
					c-2,0.3-3.7,1.2-5.2,2.7c-1.6,1.5-2.5,3.3-2.8,5.2h3.6v3.4h-3.6c0.3,2,1.3,3.7,2.8,5.2c1.5,1.5,3.2,2.5,5.2,2.8v-3.5h3.4v3.5
					c2-0.3,3.7-1.3,5.2-2.8c1.5-1.5,2.5-3.2,2.8-5.2h-3.6V-130 M-191.4-129.9c0.4,0,0.8,0.1,1.1,0.4c0.3,0.4,0.5,0.8,0.5,1.2
					c0,0.5-0.2,0.9-0.5,1.2c-0.3,0.3-0.7,0.4-1.1,0.4s-0.8-0.1-1.1-0.4c-0.3-0.3-0.5-0.7-0.5-1.2c0-0.4,0.2-0.8,0.5-1.2
					C-192.2-129.8-191.8-129.9-191.4-129.9z"/>
			</g>
		</g>
	</g>
</g>
</svg>
