<?xml version="1.0" encoding="utf-8"?>
<!-- Generator: Adobe Illustrator 23.1.1, SVG Export Plug-In . SVG Version: 6.00 Build 0)  -->
<svg version="1.1" id="Ebene_1" xmlns="http://www.w3.org/2000/svg" xmlns:xlink="http://www.w3.org/1999/xlink" x="0px" y="0px"
	 viewBox="0 0 58 58" style="enable-background:new 0 0 58 58;" xml:space="preserve">
<g transform="matrix( 0.9666595458984375, 0, 0, 0.9666595458984375, 641,92) ">
	<g transform="matrix( 1, 0, 0, 1, 0,0) ">
		<g>
			<g id="Symbol_370_0_Layer0_0_FILL">
				<path d="M-603.1-95.2h-30c-8.3,0-15.3,2.9-21.2,8.8c-5.9,5.9-8.8,12.9-8.8,21.2s2.9,15.3,8.8,21.2c5.9,5.9,12.9,8.8,21.2,8.8h30
					V-95.2 M-633.1-80.2c4.1,0,7.7,1.5,10.6,4.4c2.9,2.9,4.4,6.5,4.4,10.6c0,4.1-1.5,7.7-4.4,10.6c-2.9,2.9-6.5,4.4-10.6,4.4
					c-4.1,0-7.7-1.5-10.6-4.4c-2.9-2.9-4.4-6.5-4.4-10.6c0-4.1,1.5-7.7,4.4-10.6C-640.8-78.7-637.2-80.2-633.1-80.2 M-630-71.1
					l-0.8-0.9c-0.3-0.3-0.7-0.3-1,0l-6.7,6.8l6.7,6.7c0.4,0.3,0.7,0.3,1,0l0.8-0.8c0.3-0.3,0.3-0.7,0-1l-4.8-4.9l4.8-4.9
					C-629.7-70.4-629.7-70.8-630-71.1z"/>
			</g>
		</g>
	</g>
</g>
</svg>
