<?xml version="1.0" encoding="utf-8"?>
<!-- Generator: Adobe Illustrator 23.1.1, SVG Export Plug-In . SVG Version: 6.00 Build 0)  -->
<svg version="1.1" id="Ebene_1" xmlns="http://www.w3.org/2000/svg" xmlns:xlink="http://www.w3.org/1999/xlink" x="0px" y="0px"
	 viewBox="0 0 58 58" style="enable-background:new 0 0 58 58;" xml:space="preserve">
<g transform="matrix( 0.9666595458984375, 0, 0, 0.9666595458984375, 153,275) ">
	<g transform="matrix( 1, 0, 0, 1, 0,0) ">
		<g>
			<g id="Symbol_113_0_Layer0_0_FILL">
				<path d="M-145-229.5c1.7,1.1,3.4,2,5.2,2.8l1.1-2.7c-1.6-0.7-3.2-1.5-4.7-2.5L-145-229.5 M-156.1-243l2.7-1.1
					c-0.7-1.6-1.1-3.3-1.4-5l-3,0.6C-157.4-246.7-156.8-244.8-156.1-243 M-147.4-235.4L-147.4-235.4c-1.3-1.3-2.4-2.7-3.4-4.1
					l-2.5,1.7c1.1,1.6,2.3,3.1,3.7,4.5L-147.4-235.4 M-147.4-273.6c1.3-1.3,2.7-2.4,4.1-3.4l-1.6-2.4c-1.6,1.1-3.1,2.3-4.5,3.7
					L-147.4-273.6 M-150.8-269.5l-2.5-1.6c-1.1,1.6-2.1,3.3-2.8,5.1l2.7,1.1C-152.7-266.5-151.8-268.1-150.8-269.5 M-154.8-259.8
					l-3-0.6c-0.3,1.9-0.5,3.9-0.5,5.9h3C-155.3-256.3-155.1-258.1-154.8-259.8 M-134.1-283.9c-2,0.4-3.8,0.9-5.6,1.7l1.1,2.7
					c1.6-0.7,3.3-1.1,5.1-1.5L-134.1-283.9 M-120-243.5v-22h-16.6v22H-120 M-127.5-262.9h4.9v7.5h-4.9V-262.9 M-127.5-246.1v-7.6
					h4.9v7.5h-4.9 M-134.1-255.4v-7.5h4.9v7.5H-134.1 M-129.1-253.7v7.5h-4.9v-7.5H-129.1 M-128.3-224.5v-3c-1.8,0-3.6-0.1-5.2-0.5
					l-0.6,3C-132.3-224.7-130.3-224.5-128.3-224.5 M-116.8-226.7l-1.1-2.8c-1.6,0.7-3.3,1.2-5.1,1.5l0.5,3
					C-120.5-225.4-118.6-226-116.8-226.7 M-107.2-233.3L-107.2-233.3l-2-2.1h-0.1c-1.3,1.3-2.6,2.4-4,3.4l1.6,2.5
					C-110.1-230.7-108.6-231.9-107.2-233.3 M-101.3-254.5c0,1.8-0.1,3.6-0.5,5.3l3,0.6c0.3-1.9,0.5-3.9,0.5-5.9H-101.3 M-100.5-243
					l-2.8-1.2c-0.7,1.6-1.5,3.2-2.5,4.6l2.5,1.6C-102.2-239.5-101.3-241.2-100.5-243 M-105.8-269.5l2.5-1.6
					c-1.1-1.6-2.4-3.1-3.8-4.5l-2,2C-107.9-272.3-106.8-270.9-105.8-269.5 M-103.3-264.9c0.7,1.6,1.2,3.3,1.5,5.1l2.9-0.6
					c-0.4-2-0.9-3.8-1.7-5.6L-103.3-264.9 M-123-281l0.6-2.9c-1.9-0.4-3.9-0.6-5.9-0.6v3C-126.5-281.5-124.7-281.3-123-281
					 M-116.8-282.2l-1.1,2.7c1.6,0.7,3.2,1.5,4.7,2.5l1.6-2.4C-113.3-280.6-115-281.5-116.8-282.2z"/>
			</g>
		</g>
	</g>
</g>
</svg>
