<?xml version="1.0" encoding="utf-8"?>
<!-- Generator: Adobe Illustrator 23.1.1, SVG Export Plug-In . SVG Version: 6.00 Build 0)  -->
<svg version="1.1" id="Ebene_1" xmlns="http://www.w3.org/2000/svg" xmlns:xlink="http://www.w3.org/1999/xlink" x="0px" y="0px"
	 viewBox="0 0 58 58" style="enable-background:new 0 0 58 58;" xml:space="preserve">
<g transform="matrix( 0.9666595458984375, 0, 0, 0.9666595458984375, 214,92) ">
	<g transform="matrix( 1, 0, 0, 1, 0,0) ">
		<g>
			<g id="Symbol_88_0_Layer0_0_FILL">
				<path d="M-170.2-86.4c-5.9-5.9-12.9-8.8-21.2-8.8s-15.3,2.9-21.2,8.8c-5.9,5.9-8.8,12.9-8.8,21.2s2.9,15.3,8.8,21.2
					c5.9,5.9,12.9,8.8,21.2,8.8s15.3-2.9,21.2-8.8c5.9-5.9,8.8-12.9,8.8-21.2S-164.3-80.5-170.2-86.4 M-190.2-76.2
					c0.7,0,1.3,0.3,1.8,0.8s0.7,1.1,0.7,1.8c0,0.7-0.2,1.4-0.7,1.9s-1.1,0.7-1.8,0.7s-1.3-0.2-1.8-0.7s-0.7-1.2-0.7-1.9
					c0-0.7,0.2-1.3,0.7-1.8S-190.9-76.2-190.2-76.2 M-188.8-69.1c0.6,0.7,0.7,1.9,0.3,3.4l-1.7,6.9c-0.1,0.7,0,1.1,0.5,1
					c0.4,0,0.9-0.2,1.3-0.5c0.3-0.1,0.5-0.2,0.6-0.1c0.3,0.2,0.2,0.4,0,0.6c-1,1.2-2.1,2.2-3.3,2.9c-1.3,0.9-2.2,0.9-2.8,0
					c-0.6-0.6-0.7-1.8-0.3-3.3l1.7-7c0.1-0.7-0.1-1-0.5-1c-0.5,0-0.9,0.2-1.4,0.5c-0.3,0.1-0.4,0.1-0.5,0.1c-0.2-0.1-0.2-0.3,0-0.6
					c1-1.2,2.1-2.2,3.3-2.9C-190.4-69.9-189.4-69.9-188.8-69.1z"/>
			</g>
		</g>
	</g>
</g>
</svg>
