<?xml version="1.0" encoding="utf-8"?>
<!-- Generator: Adobe Illustrator 23.1.1, SVG Export Plug-In . SVG Version: 6.00 Build 0)  -->
<svg version="1.1" id="Ebene_1" xmlns="http://www.w3.org/2000/svg" xmlns:xlink="http://www.w3.org/1999/xlink" x="0px" y="0px"
	 viewBox="0 0 58 58" style="enable-background:new 0 0 58 58;" xml:space="preserve">
<g transform="matrix( 0.9666595458984375, 0, 0, 0.9666595458984375, 519,31) ">
	<g transform="matrix( 1, 0, 0, 1, 0,0) ">
		<g>
			<g id="Symbol_202_0_Layer0_0_FILL">
				<path d="M-485.7-23.3c-5.8-5.9-12.9-8.8-21.2-8.8s-15.3,2.9-21.2,8.8s-8.8,12.9-8.8,21.2s2.9,15.4,8.8,21.2
					c5.9,5.9,12.9,8.8,21.2,8.8s15.4-2.9,21.2-8.7c5.9-5.9,8.8-13,8.8-21.3S-479.8-17.4-485.7-23.3 M-493.5-15.5v12.3h-12v-12.3
					H-493.5 M-495.8,8.9h2.3v2.4h-2.3V8.9 M-493.5-0.9v7.3h-7.1V4h-2.5v7.3h-2.4V-0.9h7.2v2.4h2.4v-2.4H-493.5 M-500.6,8.9h2.3v2.4
					h-2.3V8.9 M-507.8-15.5v12.3h-12v-12.3H-507.8 M-507.8,11.3h-12V-0.9h12V11.3 M-510.3,8.9V1.6h-7.2v7.3H-510.3 M-512.6,4v2.4
					h-2.4V4H-512.6 M-517.5-13.1v7.3h7.2v-7.3H-517.5 M-515.1-8.2v-2.4h2.4v2.4H-515.1 M-503.1-13.1v7.3h7.2v-7.3H-503.1
					 M-498.3-8.2h-2.3v-2.4h2.3V-8.2z"/>
			</g>
		</g>
	</g>
</g>
</svg>
