<?xml version="1.0" encoding="utf-8"?>
<!-- Generator: Adobe Illustrator 23.1.1, SVG Export Plug-In . SVG Version: 6.00 Build 0)  -->
<svg version="1.1" id="Ebene_1" xmlns="http://www.w3.org/2000/svg" xmlns:xlink="http://www.w3.org/1999/xlink" x="0px" y="0px"
	 viewBox="0 0 58 58" style="enable-background:new 0 0 58 58;" xml:space="preserve">
<g transform="matrix( 0.9666595458984375, 0, 0, 0.9666595458984375, 458,458) ">
	<g transform="matrix( 1, 0, 0, 1, 0,0) ">
		<g>
			<g id="Symbol_199_0_Layer0_0_FILL">
				<path d="M-422.6-465c-5.9-5.9-12.9-8.8-21.2-8.8c-8.3,0-15.4,2.9-21.2,8.8c-5.9,5.8-8.8,12.9-8.8,21.2c0,8.3,2.9,15.3,8.8,21.2
					c5.8,5.9,12.9,8.8,21.2,8.8c8.3,0,15.3-2.9,21.2-8.8c5.9-5.9,8.8-12.9,8.8-21.2C-413.8-452.1-416.7-459.2-422.6-465
					 M-437.4-453.7c4,0.4,6.4,2.4,7.1,6c0,0.2,0.1,0.4,0.1,0.6c0.2,1.1,0.1,2.1-0.1,3.1c-0.6,2.8-2.5,5.2-5.7,7.2
					c-3.4,2.2-6,4.5-7.8,6.8c-1.8-2.3-4.4-4.6-7.7-6.8c-3.2-2.1-5.1-4.4-5.7-7.1c-0.2-1-0.3-2-0.2-3.1c0.1-0.2,0.1-0.4,0.2-0.6
					c0.7-3.6,3.1-5.6,7.1-6c2.8,0,5,1.3,6.4,3.9C-442.4-452.4-440.2-453.7-437.4-453.7z"/>
			</g>
		</g>
	</g>
</g>
</svg>
