<?xml version="1.0" encoding="utf-8"?>
<!-- Generator: Adobe Illustrator 23.1.1, SVG Export Plug-In . SVG Version: 6.00 Build 0)  -->
<svg version="1.1" id="Ebene_1" xmlns="http://www.w3.org/2000/svg" xmlns:xlink="http://www.w3.org/1999/xlink" x="0px" y="0px"
	 viewBox="0 0 58 58" style="enable-background:new 0 0 58 58;" xml:space="preserve">
<g transform="matrix( 0.9666595458984375, 0, 0, 0.9666595458984375, 275,31) ">
	<g transform="matrix( 1, 0, 0, 1, 0,0) ">
		<g>
			<g id="Symbol_81_0_Layer0_0_FILL">
				<path d="M-240.5-28.7c-4.2-2.3-8.9-3.4-14-3.4c-8.2,0-15.2,2.9-21,8.6c-0.1,0.1-0.1,0.1-0.2,0.2c-5.9,5.9-8.8,12.9-8.8,21.2
					s2.9,15.3,8.8,21.2s12.9,8.8,21.2,8.8c8.3,0,15.3-2.9,21.2-8.8c5.9-5.9,8.8-12.9,8.8-21.2s-2.9-15.3-8.8-21.2
					C-235.5-25.5-237.9-27.3-240.5-28.7 M-254.5-13.1c6.7,0.5,10.4,3.8,11,9.8c-0.4,3.7-2.4,5.7-6.1,6.1h-2.2
					c-1.1,0.1-1.7,0.7-1.8,1.8c0,0.5,0.2,0.9,0.5,1.2c0.3,0.3,0.4,0.7,0.4,1.1c-0.1,1.2-0.7,1.9-1.8,2c-6.7-0.6-10.4-4.3-11-11
					C-264.9-8.8-261.2-12.5-254.5-13.1 M-259.4-4c-0.1-1-0.7-1.6-1.8-1.8c-1.1,0.1-1.7,0.7-1.8,1.8c0.1,1.1,0.7,1.8,1.8,1.9
					C-260.1-2.2-259.5-2.9-259.4-4 M-257.5-10.7c-1.1,0.1-1.7,0.7-1.8,1.8c0,1.2,0.7,1.8,1.8,1.9c1.1-0.1,1.7-0.7,1.8-1.8
					C-255.8-9.9-256.4-10.5-257.5-10.7 M-246-4c-0.1-1-0.7-1.6-1.8-1.8c-1.1,0.2-1.7,0.8-1.8,1.8c0.1,1.1,0.7,1.8,1.8,1.9
					C-246.7-2.2-246.1-2.9-246-4 M-251.5-10.7c-1.1,0.2-1.7,0.8-1.8,1.9c0.1,1.1,0.7,1.7,1.8,1.8c1.1-0.1,1.8-0.7,1.9-1.8
					C-249.7-9.9-250.4-10.5-251.5-10.7z"/>
			</g>
		</g>
	</g>
</g>
</svg>
