<?xml version="1.0" encoding="utf-8"?>
<!-- Generator: Adobe Illustrator 23.1.1, SVG Export Plug-In . SVG Version: 6.00 Build 0)  -->
<svg version="1.1" id="Ebene_1" xmlns="http://www.w3.org/2000/svg" xmlns:xlink="http://www.w3.org/1999/xlink" x="0px" y="0px"
	 viewBox="0 0 58 58" style="enable-background:new 0 0 58 58;" xml:space="preserve">
<g transform="matrix( 0.9666595458984375, 0, 0, 0.9666595458984375, 92,214) ">
	<g transform="matrix( 1, 0, 0, 1, 0,0) ">
		<g>
			<g id="Symbol_102_0_Layer0_0_FILL">
				<path d="M-44.1-212.6c-5.9-5.9-12.9-8.8-21.1-8.8c-8.3,0-15.3,2.9-21.2,8.8c-5.9,5.9-8.8,13-8.8,21.2c0,8.3,2.9,15.3,8.8,21.2
					c5.9,5.9,12.9,8.8,21.2,8.8c8.2,0,15.2-2.9,21.1-8.8c5.9-5.9,8.9-12.9,8.9-21.2C-35.2-199.6-38.2-206.7-44.1-212.6 M-65.2-215.9
					c6.7,0,12.5,2.4,17.3,7.2c4.8,4.7,7.2,10.5,7.2,17.3s-2.4,12.6-7.2,17.4c-4.8,4.8-10.6,7.2-17.3,7.2c-6.8,0-12.6-2.4-17.4-7.2
					s-7.2-10.6-7.2-17.4s2.4-12.6,7.2-17.3C-77.8-213.5-72-215.9-65.2-215.9 M-58.4-203.1l-1.7-1.8c-0.7-0.7-1.3-0.7-2,0l-13.4,13.5
					l13.4,13.5c0.7,0.7,1.4,0.7,2.1,0l1.7-1.7c0.6-0.7,0.6-1.4-0.1-2.1l-9.7-9.7l9.7-9.8C-57.8-201.9-57.8-202.5-58.4-203.1z"/>
			</g>
		</g>
	</g>
</g>
</svg>
