<?xml version="1.0" encoding="utf-8"?>
<!-- Generator: Adobe Illustrator 23.1.1, SVG Export Plug-In . SVG Version: 6.00 Build 0)  -->
<svg version="1.1" id="Ebene_1" xmlns="http://www.w3.org/2000/svg" xmlns:xlink="http://www.w3.org/1999/xlink" x="0px" y="0px"
	 viewBox="0 0 58 58" style="enable-background:new 0 0 58 58;" xml:space="preserve">
<g transform="matrix( 0.9666595458984375, 0, 0, 0.9666595458984375, 214,458) ">
	<g transform="matrix( 1, 0, 0, 1, 0,0) ">
		<g>
			<g id="Symbol_184_0_Layer0_0_FILL">
				<path d="M-170.2-465c-5.9-5.9-12.9-8.8-21.2-8.8s-15.3,2.9-21.2,8.7c-5.9,5.9-8.8,13-8.8,21.3c0,8.3,2.9,15.3,8.8,21.2
					c5.9,5.9,12.9,8.8,21.2,8.8s15.3-2.9,21.2-8.8c5.9-5.9,8.8-12.9,8.8-21.2C-161.4-452.1-164.3-459.2-170.2-465 M-186.4-453.5
					c2.1-2.3,4-2.7,5.6-1.1l0.1,0.1c1.6,1.6,1.2,3.5-1.1,5.6l-2.1,2.2c0.5,0.5,0.7,1,0.8,1.6c0.1,0.6-0.1,1.1-0.4,1.4
					c-0.4,0.4-0.9,0.5-1.5,0.4c-0.6,0-1.1-0.3-1.6-0.8l-4.6-4.6c-0.5-0.5-0.7-1-0.8-1.6c-0.1-0.6,0.1-1,0.4-1.4
					c0.3-0.3,0.8-0.5,1.4-0.4c0.7,0.1,1.2,0.3,1.7,0.8L-186.4-453.5 M-202.5-433.5c-0.3-0.3-0.2-0.5,0.1-0.8l1.8-1.7l1.1-4.2
					l7.1-7.2l4.6,4.6l-7.1,7.1l-4.2,1.1l-1.8,1.8c-0.3,0.3-0.5,0.4-0.8,0.1L-202.5-433.5z"/>
			</g>
		</g>
	</g>
</g>
</svg>
