<?xml version="1.0" encoding="utf-8"?>
<!-- Generator: Adobe Illustrator 23.1.1, SVG Export Plug-In . SVG Version: 6.00 Build 0)  -->
<svg version="1.1" id="Ebene_1" xmlns="http://www.w3.org/2000/svg" xmlns:xlink="http://www.w3.org/1999/xlink" x="0px" y="0px"
	 viewBox="0 0 58 58" style="enable-background:new 0 0 58 58;" xml:space="preserve">
<g transform="matrix( 0.9666595458984375, 0, 0, 0.9666595458984375, 275,92) ">
	<g transform="matrix( 1, 0, 0, 1, 0,0) ">
		<g>
			<g id="Symbol_89_0_Layer0_0_FILL">
				<path d="M-233.3-86.4c-5.9-5.9-12.9-8.8-21.2-8.8c-8.3,0-15.3,2.9-21.2,8.8c-5.9,5.9-8.8,12.9-8.8,21.2s2.9,15.3,8.8,21.2
					s12.9,8.8,21.2,8.8c8.3,0,15.3-2.9,21.2-8.8c5.9-5.9,8.8-12.9,8.8-21.2S-227.4-80.5-233.3-86.4 M-254.4-71.8l5.1,5.1l-9,8.9
					l-5.9,0.8l0.9-5.9L-254.4-71.8 M-250-76.2l5.1,5l-3.2,3.3l-5-5.1L-250-76.2 M-249.5-55.5v1.3H-264v-1.3H-249.5z"/>
			</g>
		</g>
	</g>
</g>
</svg>
