<?xml version="1.0" encoding="utf-8"?>
<!-- Generator: Adobe Illustrator 23.1.1, SVG Export Plug-In . SVG Version: 6.00 Build 0)  -->
<svg version="1.1" id="Ebene_1" xmlns="http://www.w3.org/2000/svg" xmlns:xlink="http://www.w3.org/1999/xlink" x="0px" y="0px"
	 viewBox="0 0 58 58" style="enable-background:new 0 0 58 58;" xml:space="preserve">
<g transform="matrix( 0.9666595458984375, 0, 0, 0.9666595458984375, 519,336) ">
	<g transform="matrix( 1, 0, 0, 1, 0,0) ">
		<g>
			<g id="Symbol_217_0_Layer0_0_FILL">
				<path d="M-485.7-338.8c-5.9-5.9-12.9-8.8-21.2-8.8s-15.4,2.9-21.2,8.8c-5.9,5.9-8.8,12.9-8.8,21.2c0,8.3,2.9,15.3,8.7,21.2
					c5.9,5.9,13,8.8,21.3,8.8s15.3-2.9,21.2-8.8c5.9-5.9,8.8-12.9,8.8-21.2C-476.9-325.9-479.8-332.9-485.7-338.8 M-500.8-328.1
					c1.4,0.2,2.2,1,2.3,2.4v18.9c-0.1,1.4-0.9,2.2-2.3,2.4H-515c-1.5-0.2-2.3-1-2.4-2.4v-18.9c0.2-1.5,1-2.3,2.4-2.4H-500.8
					 M-503.2-315.1v-2.4h-9.5v2.4H-503.2 M-503.2-310.3v-2.4h-9.5v2.4H-503.2 M-503.2-319.8v-2.4h-9.5v2.4
					C-512.7-319.8-503.2-319.8-503.2-319.8z"/>
			</g>
		</g>
	</g>
</g>
</svg>
