<?xml version="1.0" encoding="utf-8"?>
<!-- Generator: Adobe Illustrator 23.1.1, SVG Export Plug-In . SVG Version: 6.00 Build 0)  -->
<svg version="1.1" id="Ebene_1" xmlns="http://www.w3.org/2000/svg" xmlns:xlink="http://www.w3.org/1999/xlink" x="0px" y="0px"
	 viewBox="0 0 58 58" style="enable-background:new 0 0 58 58;" xml:space="preserve">
<g transform="matrix( 0.9666595458984375, 0, 0, 0.9666595458984375, 92,275) ">
	<g transform="matrix( 1, 0, 0, 1, 0,0) ">
		<g>
			<g id="Symbol_114_0_Layer0_0_FILL">
				<path d="M-81.9-229.5c1.7,1.1,3.4,2,5.2,2.8l1.1-2.7c-1.6-0.7-3.2-1.5-4.7-2.5L-81.9-229.5 M-94.6-248.6
					c0.4,1.9,0.9,3.8,1.7,5.6l2.7-1.1c-0.7-1.6-1.1-3.3-1.4-5L-94.6-248.6 M-84.3-235.4L-84.3-235.4c-1.3-1.3-2.4-2.7-3.4-4.1
					l-2.5,1.7c1.1,1.6,2.3,3.1,3.7,4.5L-84.3-235.4 M-84.3-273.6c1.3-1.3,2.7-2.4,4.1-3.4l-1.6-2.4c-1.6,1.1-3.1,2.3-4.5,3.7
					L-84.3-273.6 M-91.7-259.8l-3-0.6c-0.3,1.9-0.5,3.9-0.5,5.9h3C-92.2-256.3-92-258.1-91.7-259.8 M-92.9-266l2.7,1.1
					c0.7-1.6,1.5-3.2,2.5-4.7l-2.5-1.6C-91.3-269.5-92.2-267.8-92.9-266 M-76.7-282.3l1.1,2.7c1.6-0.7,3.3-1.1,5.1-1.5l-0.6-2.9
					C-73-283.6-74.9-283-76.7-282.3 M-53.7-226.7l-1.1-2.8c-1.6,0.7-3.3,1.2-5.1,1.5l0.5,3C-57.4-225.4-55.5-226-53.7-226.7
					 M-65.2-224.5v-3c-1.8,0-3.6-0.1-5.2-0.5l-0.6,3C-69.2-224.7-67.2-224.5-65.2-224.5 M-59.4-243.5h2.5v-22h-16.6v22h2.5v-19.4
					h11.6V-243.5 M-44.1-233.3L-44.1-233.3l-2-2.1h-0.1c-1.3,1.3-2.6,2.4-4,3.4l1.6,2.5C-47-230.7-45.5-231.9-44.1-233.3 M-37.4-243
					l-2.8-1.2c-0.7,1.6-1.5,3.2-2.5,4.6l2.5,1.6C-39.1-239.5-38.2-241.2-37.4-243 M-38.2-254.5c0,1.8-0.1,3.6-0.5,5.3l3,0.6
					c0.3-1.9,0.5-3.9,0.5-5.9H-38.2 M-40.2-264.9c0.7,1.6,1.2,3.3,1.5,5.1l2.9-0.6c-0.4-2-0.9-3.8-1.7-5.6L-40.2-264.9 M-42.7-269.5
					l2.5-1.6c-1.1-1.6-2.4-3.1-3.8-4.5l-2,2C-44.8-272.3-43.7-270.9-42.7-269.5 M-61.8-254.8c-0.3-0.3-0.7-0.5-1.2-0.5
					c-0.5,0-0.8,0.1-1.1,0.4c-0.3,0.4-0.5,0.8-0.5,1.2c0,0.5,0.1,0.8,0.4,1.1c0.3,0.3,0.7,0.5,1.1,0.5c0.4,0,0.8-0.2,1.1-0.5
					s0.4-0.7,0.4-1.1C-61.4-254.1-61.5-254.5-61.8-254.8 M-53.7-282.2l-1.1,2.7c1.6,0.7,3.2,1.5,4.7,2.5l1.6-2.4
					C-50.2-280.6-51.9-281.5-53.7-282.2 M-59.3-283.9c-1.9-0.4-3.9-0.6-5.9-0.6v3c1.8,0,3.6,0.2,5.3,0.5L-59.3-283.9z"/>
			</g>
		</g>
	</g>
</g>
</svg>
