<?xml version="1.0" encoding="utf-8"?>
<!-- Generator: Adobe Illustrator 23.1.1, SVG Export Plug-In . SVG Version: 6.00 Build 0)  -->
<svg version="1.1" id="Ebene_1" xmlns="http://www.w3.org/2000/svg" xmlns:xlink="http://www.w3.org/1999/xlink" x="0px" y="0px"
	 viewBox="0 0 58 58" style="enable-background:new 0 0 58 58;" xml:space="preserve">
<g transform="matrix( 0.9666595458984375, 0, 0, 0.9666595458984375, 641,31) ">
	<g transform="matrix( 1, 0, 0, 1, 0,0) ">
		<g>
			<g id="Symbol_247_0_Layer0_0_FILL">
				<path d="M-611.9-23.3c-5.9-5.9-12.9-8.8-21.2-8.8c-8.3,0-15.4,2.9-21.2,8.8c-5.9,5.9-8.8,12.9-8.8,21.2s2.9,15.4,8.7,21.2
					c5.9,5.9,13,8.8,21.3,8.8c8.3,0,15.3-2.9,21.2-8.8c5.9-5.8,8.8-12.9,8.8-21.2S-606-17.4-611.9-23.3 M-629.9-5h7.1v5.5h-7.1v3.7
					l-6.4-6.4l6.4-6.3V-5 M-624.3-7.6h-2.9v-2.6h-11.3V6h11.3V3.2h2.9v5.6h-17.1v-21.9h17.1V-7.6z"/>
			</g>
		</g>
	</g>
</g>
</svg>
