<?xml version="1.0" encoding="utf-8"?>
<!-- Generator: Adobe Illustrator 23.1.1, SVG Export Plug-In . SVG Version: 6.00 Build 0)  -->
<svg version="1.1" id="Ebene_1" xmlns="http://www.w3.org/2000/svg" xmlns:xlink="http://www.w3.org/1999/xlink" x="0px" y="0px"
	 viewBox="0 0 58 58" style="enable-background:new 0 0 58 58;" xml:space="preserve">
<g transform="matrix( 0.9666595458984375, 0, 0, 0.9666595458984375, 153,92) ">
	<g transform="matrix( 1, 0, 0, 1, 0,0) ">
		<g>
			<g id="Symbol_87_0_Layer0_0_FILL">
				<path d="M-107.1-86.4c-5.9-5.9-12.9-8.8-21.2-8.8s-15.3,2.9-21.2,8.8c-5.9,5.9-8.8,12.9-8.8,21.2s2.9,15.3,8.8,21.2
					c5.9,5.9,12.9,8.8,21.2,8.8s15.3-2.9,21.2-8.8c5.9-5.9,8.8-12.9,8.8-21.2S-101.2-80.5-107.1-86.4 M-116.9-67.4
					c0.3,0.3,0.3,0.7,0.2,1.1l-1.5,8.1c0,0.3-0.1,0.5-0.2,0.7c-0.1,0.3-0.3,0.5-0.5,0.7c-0.4,0.4-0.8,0.6-1.4,0.6h-16.6l2-10.1
					c0-0.4,0.3-0.8,0.7-1.1c0.3-0.3,0.7-0.4,1.1-0.4h15.1c0.3,0,0.6,0.1,0.8,0.3L-116.9-67.4 M-120.9-71.6c0.4,0.4,0.6,0.9,0.6,1.5
					v0.3h-14.6c-0.4,0-0.8,0.2-1.2,0.6c-0.4,0.3-0.6,0.7-0.6,1.1l-2.1,10.6c-0.2-0.1-0.4-0.2-0.6-0.4c-0.4-0.4-0.6-0.9-0.6-1.5
					v-12.9c0-0.5,0.2-1,0.6-1.4c0.3-0.3,0.8-0.5,1.3-0.5h5c0.3,0,0.5,0.1,0.6,0.2l1.6,1.7c0.2,0.1,0.3,0.1,0.5,0.1h8.1
					C-121.7-72.2-121.3-72-120.9-71.6z"/>
			</g>
		</g>
	</g>
</g>
</svg>
