<?xml version="1.0" encoding="utf-8"?>
<!-- Generator: Adobe Illustrator 23.1.1, SVG Export Plug-In . SVG Version: 6.00 Build 0)  -->
<svg version="1.1" id="Ebene_1" xmlns="http://www.w3.org/2000/svg" xmlns:xlink="http://www.w3.org/1999/xlink" x="0px" y="0px"
	 viewBox="0 0 58 58" style="enable-background:new 0 0 58 58;" xml:space="preserve">
<g transform="matrix( 0.9666595458984375, 0, 0, 0.9666595458984375, 458,92) ">
	<g transform="matrix( 1, 0, 0, 1, 0,0) ">
		<g>
			<g id="Symbol_92_0_Layer0_0_FILL">
				<path d="M-422.6-86.4c-5.9-5.9-12.9-8.8-21.2-8.8c-8.3,0-15.3,2.9-21.2,8.8c-5.9,5.9-8.8,12.9-8.8,21.2s2.9,15.3,8.8,21.2
					s12.9,8.8,21.2,8.8c8.3,0,15.3-2.9,21.2-8.8c5.9-5.9,8.8-12.9,8.8-21.2S-416.7-80.5-422.6-86.4 M-442.7-65.5
					c0.3-0.3,0.7-0.4,1.1-0.4s0.8,0.1,1.1,0.4c0.4,0.3,0.5,0.7,0.5,1.1c0,0.5-0.1,0.8-0.4,1.1c-0.3,0.4-0.7,0.6-1.2,0.6
					c-0.4,0-0.8-0.2-1.1-0.5s-0.5-0.7-0.5-1.2C-443.2-64.8-443-65.2-442.7-65.5 M-435.5-54.2h-2.5v-19.4h-11.6v19.4h-2.5v-22h16.6
					V-54.2z"/>
			</g>
		</g>
	</g>
</g>
</svg>
