<?xml version="1.0" encoding="utf-8"?>
<!-- Generator: Adobe Illustrator 23.1.1, SVG Export Plug-In . SVG Version: 6.00 Build 0)  -->
<svg version="1.1" id="Ebene_1" xmlns="http://www.w3.org/2000/svg" xmlns:xlink="http://www.w3.org/1999/xlink" x="0px" y="0px"
	 viewBox="0 0 58 58" style="enable-background:new 0 0 58 58;" xml:space="preserve">
<g transform="matrix( 0.9666595458984375, 0, 0, 0.9666595458984375, 397,31) ">
	<g transform="matrix( 1, 0, 0, 1, 0,0) ">
		<g>
			<g id="Symbol_83_0_Layer0_0_FILL">
				<path d="M-359.5-23.3c-5.9-5.9-12.9-8.8-21.2-8.8c-8.3,0-15.3,2.9-21.2,8.8s-8.8,12.9-8.8,21.2s2.9,15.3,8.8,21.2
					s12.9,8.8,21.2,8.8c8.3,0,15.3-2.9,21.2-8.8s8.8-12.9,8.8-21.2S-353.6-17.4-359.5-23.3 M-371.8-9.9c1.3,0.1,2,0.8,2.1,2.2V5.7
					c0,1.3-0.8,2.1-2.1,2.2h-17.8c-1.4-0.1-2.1-0.9-2.2-2.2V-7.7c0.1-1.4,0.8-2.1,2.2-2.2h3.5l2-2.2h6.7l2.1,2.2H-371.8 M-380.7,4.5
					c3.4-0.3,5.2-2.2,5.5-5.5c-0.3-3.4-2.1-5.3-5.5-5.6c-3.4,0.3-5.2,2.2-5.5,5.6C-385.9,2.4-384.1,4.2-380.7,4.5 M-380.7,2.4
					c-2.2-0.1-3.4-1.3-3.6-3.5c0.2-2.1,1.4-3.3,3.6-3.5c2.1,0.2,3.3,1.4,3.5,3.5C-377.4,1.1-378.6,2.3-380.7,2.4z"/>
			</g>
		</g>
	</g>
</g>
</svg>
