<?xml version="1.0" encoding="utf-8"?>
<!-- Generator: Adobe Illustrator 23.1.1, SVG Export Plug-In . SVG Version: 6.00 Build 0)  -->
<svg version="1.1" id="Ebene_1" xmlns="http://www.w3.org/2000/svg" xmlns:xlink="http://www.w3.org/1999/xlink" x="0px" y="0px"
	 viewBox="0 0 58 58" style="enable-background:new 0 0 58 58;" xml:space="preserve">
<g transform="matrix( 0.9666595458984375, 0, 0, 0.9666595458984375, 336,153) ">
	<g transform="matrix( 1, 0, 0, 1, 0,0) ">
		<g>
			<g id="Symbol_98_0_Layer0_0_FILL">
				<path d="M-296.4-149.5c-5.9-5.9-12.9-8.8-21.2-8.8c-8.3,0-15.3,2.9-21.2,8.8c-5.9,5.9-8.8,12.9-8.8,21.2s2.9,15.3,8.8,21.2
					c5.9,5.9,12.9,8.8,21.2,8.8c8.3,0,15.3-2.9,21.2-8.8c1.4-1.4,2.7-3,3.8-4.5c3.3-4.9,5-10.4,5-16.6s-1.7-11.8-5-16.6
					C-293.7-146.5-295-148.1-296.4-149.5 M-311.1-134.9c1.7,0.5,2.5,2.3,2.6,5.4c-0.2,3.4-1,6-2.5,7.7l-4.4-1
					c-1.1-3.5-1-6.8,0.4-9.9C-314-134.5-312.7-135.3-311.1-134.9 M-311.3-120.6c-0.5,3.6-1.7,5.1-3.6,4.6c-1.7-0.3-2.3-1.5-1.9-3.4
					c0.2-0.8,0.5-1.5,1-2.2L-311.3-120.6 M-320.1-138.5c1.3,3.1,1.5,6.3,0.4,9.8l-4.4,1.1c-1.6-1.7-2.4-4.3-2.6-7.7
					c0.1-3.1,0.9-4.9,2.6-5.4C-322.5-141.1-321.2-140.4-320.1-138.5 M-323.8-126.4l4.4-1.1c0.5,0.8,0.8,1.5,1,2.2
					c0.4,2-0.2,3.2-1.8,3.6C-322.2-121.2-323.4-122.8-323.8-126.4z"/>
			</g>
		</g>
	</g>
</g>
</svg>
