<?xml version="1.0" encoding="utf-8"?>
<!-- Generator: Adobe Illustrator 23.1.1, SVG Export Plug-In . SVG Version: 6.00 Build 0)  -->
<svg version="1.1" id="Ebene_1" xmlns="http://www.w3.org/2000/svg" xmlns:xlink="http://www.w3.org/1999/xlink" x="0px" y="0px"
	 viewBox="0 0 58 58" style="enable-background:new 0 0 58 58;" xml:space="preserve">
<g transform="matrix( 0.9666595458984375, 0, 0, 0.9666595458984375, 397,92) ">
	<g transform="matrix( 1, 0, 0, 1, 0,0) ">
		<g>
			<g id="Symbol_91_0_Layer0_0_FILL">
				<path d="M-359.5-86.4c-5.9-5.9-12.9-8.8-21.2-8.8c-8.3,0-15.3,2.9-21.2,8.8c-5.9,5.9-8.8,12.9-8.8,21.2s2.9,15.3,8.8,21.2
					s12.9,8.8,21.2,8.8c8.3,0,15.3-2.9,21.2-8.8s8.8-12.9,8.8-21.2S-353.6-80.5-359.5-86.4 M-372.4-76.2v22H-389v-22H-372.4
					 M-386.5-64.4v7.5h4.9v-7.5H-386.5 M-386.5-66.1h4.9v-7.5h-4.9V-66.1 M-379.9-64.4v7.5h4.9v-7.5H-379.9 M-374.9-73.6h-5v7.5h4.9
					v-7.5H-374.9z"/>
			</g>
		</g>
	</g>
</g>
</svg>
