<?xml version="1.0" encoding="utf-8"?>
<!-- Generator: Adobe Illustrator 23.1.1, SVG Export Plug-In . SVG Version: 6.00 Build 0)  -->
<svg version="1.1" id="Ebene_1" xmlns="http://www.w3.org/2000/svg" xmlns:xlink="http://www.w3.org/1999/xlink" x="0px" y="0px"
	 viewBox="0 0 58 58" style="enable-background:new 0 0 58 58;" xml:space="preserve">
<g transform="matrix( 0.9666595458984375, 0, 0, 0.9666595458984375, 153,458) ">
	<g transform="matrix( 1, 0, 0, 1, 0,0) ">
		<g>
			<g id="Symbol_179_0_Layer0_0_FILL">
				<path d="M-107.1-465c-5.9-5.9-12.9-8.8-21.2-8.8s-15.3,2.9-21.2,8.8c-5.9,5.9-8.8,12.9-8.8,21.2c0,8.3,2.9,15.3,8.8,21.2
					c5.9,5.9,12.9,8.8,21.2,8.8s15.3-2.9,21.2-8.8c5.9-5.9,8.8-12.9,8.8-21.2C-98.3-452.1-101.2-459.1-107.1-465 M-121.8-454.1
					c1.1,0,2,0.2,2.7,0.6c1.5,0.8,2.3,2.3,2.4,4.5c-0.3-0.1-0.7-0.1-1,0.1c-1.1,0.1-2.4,1.4-3.6,3.7c-1.9-0.7-4.2-1-7-0.9
					c-2.9-0.1-5.2,0.2-7.1,0.9c-1.3-2.3-2.5-3.6-3.7-3.7c-0.3-0.1-0.6-0.1-0.9-0.1c0.1-2.3,0.9-3.8,2.4-4.5c0.8-0.4,1.7-0.6,2.7-0.6
					H-121.8 M-116.5-447.8c0,0,0.1,0,0.1,0.1c1.4,0.2,2.1,1,2,2.5c0,0.9-0.5,1.6-1.5,2.1c-1-1.1-2.3-1.7-3.9-1.7
					C-118.7-446.9-117.7-447.9-116.5-447.8L-116.5-447.8 M-114.7-438.6c0,1.3-0.4,2.4-1.3,3.3s-2,1.3-3.3,1.3
					c-1.3,0-2.4-0.4-3.3-1.3c-0.5-0.5-0.8-1-1-1.5c-0.3-0.6-0.4-1.2-0.4-1.8c0-1.3,0.5-2.4,1.4-3.3c0.7-0.7,1.5-1.2,2.5-1.3
					c0.1,0,0.2,0,0.4,0c0.1,0,0.3-0.1,0.4-0.1c1.3,0,2.4,0.5,3.3,1.4l0.1,0.1C-115.1-440.9-114.7-439.8-114.7-438.6 M-124-442.7
					c-1.1,1.1-1.7,2.5-1.7,4c0,0.6,0.1,1.2,0.3,1.7h-10.2c-0.1,0-0.2,0-0.2,0l-1.6,2.8c-0.2,0.3-0.4,0.4-0.7,0.5
					c-0.3,0.1-0.5,0-0.8-0.1c-0.3-0.2-0.4-0.4-0.5-0.6c-0.1-0.3,0-0.5,0.1-0.8l1.4-2.4c-0.4-0.2-0.8-0.6-1.1-1.1l-1.4-3.7
					c-1.3-0.6-1.9-1.4-1.9-2.4c0-1.5,0.7-2.3,2-2.5c0.1,0,0.1,0,0.1,0h0.1c1.3-0.1,2.6,1.4,3.8,4.3c1.9-1.2,4.6-1.7,8-1.6
					c2.3,0,4.4,0.2,6,0.7C-122.9-443.6-123.5-443.2-124-442.7 M-116.3-437.9v-1.4h-2.4v-2.4h-1.3v2.3h-2.4v1.4h2.4v2.3h1.3v-2.2
					H-116.3z"/>
			</g>
		</g>
	</g>
</g>
</svg>
