<?xml version="1.0" encoding="utf-8"?>
<!-- Generator: Adobe Illustrator 23.1.1, SVG Export Plug-In . SVG Version: 6.00 Build 0)  -->
<svg version="1.1" id="Ebene_1" xmlns="http://www.w3.org/2000/svg" xmlns:xlink="http://www.w3.org/1999/xlink" x="0px" y="0px"
	 viewBox="0 0 58 58" style="enable-background:new 0 0 58 58;" xml:space="preserve">
<g transform="matrix( 0.9666595458984375, 0, 0, 0.9666595458984375, 458,397) ">
	<g transform="matrix( 1, 0, 0, 1, 0,0) ">
		<g>
			<g id="Symbol_172_0_Layer0_0_FILL">
				<path d="M-422.7-401.9c-5.9-5.9-12.9-8.8-21.1-8.8c-8.3,0-15.3,2.9-21.2,8.8s-8.8,13-8.8,21.2c0,8.3,2.9,15.3,8.8,21.2
					s12.9,8.8,21.2,8.8c8.2,0,15.2-2.9,21.1-8.8s8.9-12.9,8.9-21.2C-413.8-388.9-416.8-396-422.7-401.9 M-443.8-405.2
					c6.7,0,12.5,2.4,17.3,7.2c4.8,4.7,7.2,10.5,7.2,17.3c0,6.8-2.4,12.6-7.2,17.4c-4.8,4.8-10.6,7.2-17.3,7.2
					c-6.8,0-12.6-2.4-17.4-7.2c-4.8-4.8-7.2-10.6-7.2-17.4c0-6.8,2.4-12.6,7.2-17.3C-456.4-402.8-450.6-405.2-443.8-405.2
					 M-428.4-388.4l-4.7-4.6l-15.3,15.4l-6.2-6.1l-4.6,4.5l10.8,10.7L-428.4-388.4z"/>
			</g>
		</g>
	</g>
</g>
</svg>
