<?xml version="1.0" encoding="utf-8"?>
<!-- Generator: Adobe Illustrator 23.1.1, SVG Export Plug-In . SVG Version: 6.00 Build 0)  -->
<svg version="1.1" id="Ebene_1" xmlns="http://www.w3.org/2000/svg" xmlns:xlink="http://www.w3.org/1999/xlink" x="0px" y="0px"
	 viewBox="0 0 58 58" style="enable-background:new 0 0 58 58;" xml:space="preserve">
<g transform="matrix( 0.9666595458984375, 0, 0, 0.9666595458984375, 275,397) ">
	<g transform="matrix( 1, 0, 0, 1, 0,0) ">
		<g>
			<g id="Symbol_169_0_Layer0_0_FILL">
				<path d="M-233.3-401.9c-5.9-5.9-12.9-8.8-21.2-8.8c-8.3,0-15.3,2.9-21.2,8.8s-8.8,12.9-8.8,21.2c0,8.3,2.9,15.3,8.8,21.2
					s12.9,8.8,21.2,8.8c8.3,0,15.3-2.9,21.2-8.8c5.9-5.9,8.8-12.9,8.8-21.2C-224.5-389-227.4-396-233.3-401.9 M-254.5-391.2
					c2.2,0,4.1,0.8,5.7,2.3c1.6,1.6,2.4,3.6,2.4,5.8c0,2-0.6,3.8-1.9,5.3c-0.2,0.3-0.5,0.6-0.7,0.8c-3,3.3-4.8,7.2-5.5,11.7
					c-0.7-4.5-2.5-8.4-5.5-11.7c-0.2-0.2-0.5-0.5-0.7-0.7c-1.3-1.5-1.9-3.3-1.9-5.3c0-2.2,0.8-4.2,2.3-5.8
					C-258.7-390.4-256.7-391.2-254.5-391.2 M-252.4-385.2c-0.6-0.6-1.3-0.9-2.1-0.9s-1.5,0.3-2.1,0.9c-0.6,0.6-0.9,1.4-0.9,2.2
					s0.3,1.5,0.9,2.1c0.6,0.6,1.3,0.9,2.1,0.9s1.5-0.3,2.1-0.9c0.6-0.6,0.9-1.3,0.9-2.1S-251.8-384.6-252.4-385.2z"/>
			</g>
		</g>
	</g>
</g>
</svg>
