<?xml version="1.0" encoding="utf-8"?>
<!-- Generator: Adobe Illustrator 23.1.1, SVG Export Plug-In . SVG Version: 6.00 Build 0)  -->
<svg version="1.1" id="Ebene_1" xmlns="http://www.w3.org/2000/svg" xmlns:xlink="http://www.w3.org/1999/xlink" x="0px" y="0px"
	 viewBox="0 0 58 58" style="enable-background:new 0 0 58 58;" xml:space="preserve">
<g transform="matrix( 1, 0, 0, 1, 580,153) ">
	<g transform="matrix( 1, 0, 0, 1, 0,0) ">
		<g>
			<g id="Symbol_230_0_Layer0_0_FILL">
				<path d="M-530.5-144.5c-5.7-5.7-12.5-8.5-20.5-8.5s-14.8,2.8-20.5,8.5c-5.7,5.7-8.5,12.5-8.5,20.5s2.8,14.8,8.5,20.5
					c5.7,5.7,12.5,8.5,20.5,8.5s14.8-2.8,20.5-8.5c5.7-5.7,8.5-12.5,8.5-20.5S-524.8-138.8-530.5-144.5 M-548.5-126v-2.5
					c0.8,0.3,1.5,0.7,2,1.3c0.9,0.9,1.4,2,1.4,3.3s-0.5,2.4-1.4,3.3c-0.6,0.6-1.3,1-2,1.2v-2.5c0.1-0.1,0.3-0.2,0.4-0.3
					c0.5-0.5,0.7-1,0.7-1.6s-0.2-1.2-0.7-1.6C-548.2-125.7-548.4-125.9-548.5-126 M-548.5-134.4c2.3,0.3,4.4,1.3,6.1,3
					c2.1,2,3.1,4.5,3.1,7.4s-1.1,5.3-3.1,7.4c-1.6,1.6-3.8,2.7-6.1,2.9v-2.2c1.7-0.2,3.3-1,4.5-2.3c1.6-1.5,2.5-3.5,2.5-5.8
					s-0.9-4.3-2.5-5.9c-1.3-1.3-2.8-2-4.5-2.3V-134.4 M-551-134.4v20.8h-0.1l-6.9-6.9h-4.7v-7.1h4.7L-551-134.4
					C-551.1-134.4-551-134.4-551-134.4z"/>
			</g>
		</g>
	</g>
</g>
</svg>
